%TF.GenerationSoftware,KiCad,Pcbnew,8.0.6*%
%TF.CreationDate,2024-11-20T19:49:45-07:00*%
%TF.ProjectId,board,626f6172-642e-46b6-9963-61645f706362,v1.0.0*%
%TF.SameCoordinates,Original*%
%TF.FileFunction,Copper,L1,Top*%
%TF.FilePolarity,Positive*%
%FSLAX46Y46*%
G04 Gerber Fmt 4.6, Leading zero omitted, Abs format (unit mm)*
G04 Created by KiCad (PCBNEW 8.0.6) date 2024-11-20 19:49:45*
%MOMM*%
%LPD*%
G01*
G04 APERTURE LIST*
G04 Aperture macros list*
%AMHorizOval*
0 Thick line with rounded ends*
0 $1 width*
0 $2 $3 position (X,Y) of the first rounded end (center of the circle)*
0 $4 $5 position (X,Y) of the second rounded end (center of the circle)*
0 Add line between two ends*
20,1,$1,$2,$3,$4,$5,0*
0 Add two circle primitives to create the rounded ends*
1,1,$1,$2,$3*
1,1,$1,$4,$5*%
%AMRotRect*
0 Rectangle, with rotation*
0 The origin of the aperture is its center*
0 $1 length*
0 $2 width*
0 $3 Rotation angle, in degrees counterclockwise*
0 Add horizontal line*
21,1,$1,$2,0,0,$3*%
%AMFreePoly0*
4,1,6,1.300000,0.000000,0.000000,-1.300000,-1.300000,-1.300000,-1.300000,1.300000,1.300000,1.300000,1.300000,0.000000,1.300000,0.000000,$1*%
%AMFreePoly1*
4,1,6,0.500000,-0.625000,-0.650000,-0.625000,-0.150000,0.000000,-0.650000,0.625000,0.500000,0.625000,0.500000,-0.625000,0.500000,-0.625000,$1*%
%AMFreePoly2*
4,1,6,0.250000,0.000000,-0.250000,-0.625000,-0.500000,-0.625000,-0.500000,0.625000,-0.250000,0.625000,0.250000,0.000000,0.250000,0.000000,$1*%
G04 Aperture macros list end*
%TA.AperFunction,ComponentPad*%
%ADD10C,0.800000*%
%TD*%
%TA.AperFunction,SMDPad,CuDef*%
%ADD11R,1.200000X0.900000*%
%TD*%
%TA.AperFunction,SMDPad,CuDef*%
%ADD12FreePoly0,355.000000*%
%TD*%
%TA.AperFunction,SMDPad,CuDef*%
%ADD13RotRect,2.600000X2.600000X355.000000*%
%TD*%
%TA.AperFunction,SMDPad,CuDef*%
%ADD14RotRect,0.900000X1.200000X85.000000*%
%TD*%
%TA.AperFunction,ComponentPad*%
%ADD15RotRect,1.200000X1.700000X85.000000*%
%TD*%
%TA.AperFunction,ComponentPad*%
%ADD16HorizOval,1.200000X-0.249049X0.021789X0.249049X-0.021789X0*%
%TD*%
%TA.AperFunction,SMDPad,CuDef*%
%ADD17FreePoly0,340.500000*%
%TD*%
%TA.AperFunction,SMDPad,CuDef*%
%ADD18RotRect,2.600000X2.600000X340.500000*%
%TD*%
%TA.AperFunction,ComponentPad*%
%ADD19RotRect,1.200000X1.700000X265.000000*%
%TD*%
%TA.AperFunction,SMDPad,CuDef*%
%ADD20RotRect,0.900000X1.200000X70.500000*%
%TD*%
%TA.AperFunction,SMDPad,CuDef*%
%ADD21FreePoly1,175.000000*%
%TD*%
%TA.AperFunction,ComponentPad*%
%ADD22HorizOval,1.800000X0.473192X-0.041399X-0.473192X0.041399X0*%
%TD*%
%TA.AperFunction,ComponentPad*%
%ADD23HorizOval,1.800000X-0.473192X0.041399X0.473192X-0.041399X0*%
%TD*%
%TA.AperFunction,SMDPad,CuDef*%
%ADD24FreePoly1,355.000000*%
%TD*%
%TA.AperFunction,SMDPad,CuDef*%
%ADD25FreePoly2,355.000000*%
%TD*%
%TA.AperFunction,SMDPad,CuDef*%
%ADD26FreePoly2,175.000000*%
%TD*%
%TA.AperFunction,SMDPad,CuDef*%
%ADD27RotRect,0.700000X1.500000X85.000000*%
%TD*%
%TA.AperFunction,SMDPad,CuDef*%
%ADD28RotRect,1.000000X0.800000X85.000000*%
%TD*%
%TA.AperFunction,SMDPad,CuDef*%
%ADD29FreePoly0,326.000000*%
%TD*%
%TA.AperFunction,SMDPad,CuDef*%
%ADD30RotRect,2.600000X2.600000X326.000000*%
%TD*%
%TA.AperFunction,SMDPad,CuDef*%
%ADD31FreePoly0,0.000000*%
%TD*%
%TA.AperFunction,SMDPad,CuDef*%
%ADD32R,2.600000X2.600000*%
%TD*%
%TA.AperFunction,SMDPad,CuDef*%
%ADD33RotRect,0.900000X1.200000X56.000000*%
%TD*%
%TA.AperFunction,ViaPad*%
%ADD34C,0.800000*%
%TD*%
%TA.AperFunction,Conductor*%
%ADD35C,0.250000*%
%TD*%
G04 APERTURE END LIST*
D10*
%TO.P,D2,1,K*%
%TO.N,Net-(D11-K)*%
X6975552Y12156658D03*
D11*
X6975552Y12156658D03*
D10*
%TO.P,D2,2,A*%
%TO.N,Net-(D2-A)*%
X6975552Y15456658D03*
D11*
X6975552Y15456658D03*
%TD*%
D12*
%TO.P,S12,1,A*%
%TO.N,Net-(S10-A)*%
X62304870Y46252961D03*
D13*
%TO.P,S12,2,B*%
%TO.N,Net-(D12-A)*%
X50607079Y45067982D03*
%TD*%
D10*
%TO.P,D12,1,K*%
%TO.N,Net-(D12-K)*%
X64963483Y34181973D03*
D14*
X64963483Y34181973D03*
D10*
%TO.P,D12,2,A*%
%TO.N,Net-(D12-A)*%
X65251097Y37469415D03*
D14*
X65251097Y37469415D03*
%TD*%
D12*
%TO.P,S9,1,A*%
%TO.N,Net-(S16-A)*%
X44983455Y54795127D03*
D13*
%TO.P,S9,2,B*%
%TO.N,Net-(D9-A)*%
X33285664Y53610148D03*
%TD*%
D10*
%TO.P,D10,1,K*%
%TO.N,Net-(D1-K)*%
X61825876Y-1681037D03*
D14*
X61825876Y-1681037D03*
D10*
%TO.P,D10,2,A*%
%TO.N,Net-(D10-A)*%
X62113490Y1606405D03*
D14*
X62113490Y1606405D03*
%TD*%
D12*
%TO.P,S5,1,A*%
%TO.N,Net-(S4-A)*%
X24960213Y32455258D03*
D13*
%TO.P,S5,2,B*%
%TO.N,Net-(D5-A)*%
X13262422Y31270279D03*
%TD*%
D15*
%TO.P,JST1,1,Pin_1*%
%TO.N,Net-(JST1-Pin_1)*%
X87077423Y17032699D03*
D16*
%TO.P,JST1,2,Pin_2*%
%TO.N,Net-(JST1-Pin_2)*%
X87251735Y19025089D03*
%TD*%
D10*
%TO.P,D5,1,K*%
%TO.N,Net-(D11-K)*%
X27618826Y20384269D03*
D14*
X27618826Y20384269D03*
D10*
%TO.P,D5,2,A*%
%TO.N,Net-(D5-A)*%
X27906440Y23671711D03*
D14*
X27906440Y23671711D03*
%TD*%
D17*
%TO.P,S17,1,A*%
%TO.N,Net-(S10-A)*%
X89319411Y-16899531D03*
D18*
%TO.P,S17,2,B*%
%TO.N,Net-(D17-A)*%
X77697526Y-15117873D03*
%TD*%
D10*
%TO.P,D4,1,K*%
%TO.N,Net-(D1-K)*%
X26050023Y2452765D03*
D14*
X26050023Y2452765D03*
D10*
%TO.P,D4,2,A*%
%TO.N,Net-(D4-A)*%
X26337637Y5740207D03*
D14*
X26337637Y5740207D03*
%TD*%
D12*
%TO.P,S8,1,A*%
%TO.N,Net-(S16-A)*%
X43414652Y36863623D03*
D13*
%TO.P,S8,2,B*%
%TO.N,Net-(D8-A)*%
X31716861Y35678644D03*
%TD*%
D19*
%TO.P,JST2,1,Pin_1*%
%TO.N,Net-(JST1-Pin_1)*%
X102194656Y17717753D03*
D16*
%TO.P,JST2,2,Pin_2*%
%TO.N,Net-(JST2-Pin_2)*%
X102020344Y15725363D03*
%TD*%
D12*
%TO.P,S15,1,A*%
%TO.N,Net-(S13-A)*%
X80062063Y42691768D03*
D13*
%TO.P,S15,2,B*%
%TO.N,Net-(D15-A)*%
X68364272Y41506789D03*
%TD*%
D10*
%TO.P,D17,1,K*%
%TO.N,Net-(D16-K)*%
X88871007Y-29251693D03*
D20*
X88871007Y-29251693D03*
D10*
%TO.P,D17,2,A*%
%TO.N,Net-(D17-A)*%
X89972569Y-26140977D03*
D20*
X89972569Y-26140977D03*
%TD*%
D12*
%TO.P,S14,1,A*%
%TO.N,Net-(S13-A)*%
X78493259Y24760264D03*
D13*
%TO.P,S14,2,B*%
%TO.N,Net-(D14-A)*%
X66795468Y23575285D03*
%TD*%
D12*
%TO.P,S4,1,A*%
%TO.N,Net-(S4-A)*%
X23391410Y14523753D03*
D13*
%TO.P,S4,2,B*%
%TO.N,Net-(D4-A)*%
X11693619Y13338774D03*
%TD*%
D10*
%TO.P,D6,1,K*%
%TO.N,Net-(D12-K)*%
X29187629Y38315774D03*
D14*
X29187629Y38315774D03*
D10*
%TO.P,D6,2,A*%
%TO.N,Net-(D6-A)*%
X29475243Y41603216D03*
D14*
X29475243Y41603216D03*
%TD*%
D12*
%TO.P,S7,1,A*%
%TO.N,Net-(S16-A)*%
X41845849Y18932118D03*
D13*
%TO.P,S7,2,B*%
%TO.N,Net-(D7-A)*%
X30148058Y17747139D03*
%TD*%
D10*
%TO.P,D14,1,K*%
%TO.N,Net-(D11-K)*%
X81151872Y12689275D03*
D14*
X81151872Y12689275D03*
D10*
%TO.P,D14,2,A*%
%TO.N,Net-(D14-A)*%
X81439486Y15976717D03*
D14*
X81439486Y15976717D03*
%TD*%
D12*
%TO.P,S6,1,A*%
%TO.N,Net-(S4-A)*%
X26529016Y50386763D03*
D13*
%TO.P,S6,2,B*%
%TO.N,Net-(D6-A)*%
X14831225Y49201784D03*
%TD*%
D10*
%TO.P,U1,0,P0*%
%TO.N,Net-(S1-A)*%
X93575805Y42683939D03*
D21*
X101582221Y41983468D03*
D10*
%TO.P,U1,1,P1*%
%TO.N,Net-(S4-A)*%
X93354429Y40153604D03*
D21*
X101360846Y39453133D03*
D10*
%TO.P,U1,2,P2*%
%TO.N,Net-(S16-A)*%
X93133050Y37623270D03*
D21*
X101139470Y36922799D03*
D22*
%TO.P,U1,3,P3*%
%TO.N,Net-(S10-A)*%
X88097069Y35514159D03*
%TO.P,U1,4,P4*%
%TO.N,Net-(D12-K)*%
X87875694Y32983824D03*
%TO.P,U1,5,P5*%
%TO.N,Net-(D11-K)*%
X87654318Y30453490D03*
%TO.P,U1,6,P6*%
%TO.N,Net-(D1-K)*%
X87432943Y27923155D03*
D23*
%TO.P,U1,7,P7*%
%TO.N,Net-(D16-K)*%
X103561334Y26512104D03*
%TO.P,U1,8,P8*%
%TO.N,Net-(S13-A)*%
X103782709Y29042438D03*
%TO.P,U1,9,P9*%
%TO.N,unconnected-(U1-P9-Pad9)*%
X104004085Y31572773D03*
%TO.P,U1,10,P10*%
%TO.N,unconnected-(U1-P10-Pad10)*%
X104225461Y34103107D03*
D24*
%TO.P,U1,11,V3*%
%TO.N,unconnected-(U1-V3-Pad11)*%
X91625811Y37755136D03*
D10*
X99632228Y37054666D03*
D24*
%TO.P,U1,12,GND*%
%TO.N,unconnected-(U1-GND-Pad12)*%
X91847184Y40285471D03*
D10*
X99853603Y39585000D03*
D24*
%TO.P,U1,13,VCC*%
%TO.N,unconnected-(U1-VCC-Pad13)*%
X92068562Y42815805D03*
D10*
X100074979Y42115335D03*
D22*
%TO.P,U1,_1_0*%
%TO.N,N/C*%
X88761196Y43105162D03*
D25*
X91226778Y42889452D03*
D22*
%TO.P,U1,_1_1*%
X88539821Y40574828D03*
D25*
X91005402Y40359117D03*
D22*
%TO.P,U1,_1_2*%
X88318445Y38044493D03*
D25*
X90784026Y37828783D03*
D26*
%TO.P,U1,_1_11*%
X101981255Y36849152D03*
D23*
X104446836Y36633442D03*
D26*
%TO.P,U1,_1_12*%
X102202630Y39379487D03*
D23*
X104668212Y39163776D03*
D26*
%TO.P,U1,_1_13*%
X102424006Y41909821D03*
D23*
X104889587Y41694111D03*
%TD*%
D10*
%TO.P,D15,1,K*%
%TO.N,Net-(D12-K)*%
X82720676Y30620780D03*
D14*
X82720676Y30620780D03*
D10*
%TO.P,D15,2,A*%
%TO.N,Net-(D15-A)*%
X83008290Y33908222D03*
D14*
X83008290Y33908222D03*
%TD*%
D27*
%TO.P,S20,1*%
%TO.N,Net-(JST2-Pin_2)*%
X100560559Y-588916D03*
%TO.P,S20,2*%
%TO.N,Net-(JST1-Pin_2)*%
X100822026Y2399669D03*
%TO.P,S20,3*%
%TO.N,unconnected-(S20-Pad3)*%
X100952760Y3893961D03*
D28*
%TO.P,S20,SH1*%
%TO.N,N/C*%
X101086067Y-2040239D03*
%TO.P,S20,SH2*%
X101722304Y5231982D03*
%TO.P,S20,SH3*%
X103277696Y-2231982D03*
%TO.P,S20,SH4*%
X103913933Y5040239D03*
%TD*%
D10*
%TO.P,D16,1,K*%
%TO.N,Net-(D16-K)*%
X70953747Y-23559839D03*
D14*
X70953747Y-23559839D03*
D10*
%TO.P,D16,2,A*%
%TO.N,Net-(D16-A)*%
X71241361Y-20272397D03*
D14*
X71241361Y-20272397D03*
%TD*%
D10*
%TO.P,D8,1,K*%
%TO.N,Net-(D11-K)*%
X46073265Y24792634D03*
D14*
X46073265Y24792634D03*
D10*
%TO.P,D8,2,A*%
%TO.N,Net-(D8-A)*%
X46360879Y28080076D03*
D14*
X46360879Y28080076D03*
%TD*%
D29*
%TO.P,S18,1,A*%
%TO.N,Net-(S13-A)*%
X108319289Y-27401926D03*
D30*
%TO.P,S18,2,B*%
%TO.N,Net-(D18-A)*%
X97513680Y-22767131D03*
%TD*%
D12*
%TO.P,S13,1,A*%
%TO.N,Net-(S13-A)*%
X76924456Y6828759D03*
D13*
%TO.P,S13,2,B*%
%TO.N,Net-(D13-A)*%
X65226665Y5643780D03*
%TD*%
D31*
%TO.P,S3,1,A*%
%TO.N,Net-(S1-A)*%
X3275000Y41950000D03*
D32*
%TO.P,S3,2,B*%
%TO.N,Net-(D3-A)*%
X-8275000Y39750000D03*
%TD*%
D10*
%TO.P,D13,1,K*%
%TO.N,Net-(D1-K)*%
X79583069Y-5242229D03*
D14*
X79583069Y-5242229D03*
D10*
%TO.P,D13,2,A*%
%TO.N,Net-(D13-A)*%
X79870683Y-1954787D03*
D14*
X79870683Y-1954787D03*
%TD*%
D12*
%TO.P,S11,1,A*%
%TO.N,Net-(S10-A)*%
X60736066Y28321456D03*
D13*
%TO.P,S11,2,B*%
%TO.N,Net-(D11-A)*%
X49038275Y27136477D03*
%TD*%
D10*
%TO.P,D3,1,K*%
%TO.N,Net-(D12-K)*%
X6975552Y30156658D03*
D11*
X6975552Y30156658D03*
D10*
%TO.P,D3,2,A*%
%TO.N,Net-(D3-A)*%
X6975552Y33456658D03*
D11*
X6975552Y33456658D03*
%TD*%
D10*
%TO.P,D18,1,K*%
%TO.N,Net-(D16-K)*%
X104792432Y-39248372D03*
D33*
X104792432Y-39248372D03*
D10*
%TO.P,D18,2,A*%
%TO.N,Net-(D18-A)*%
X106637768Y-36512548D03*
D33*
X106637768Y-36512548D03*
%TD*%
D10*
%TO.P,D11,1,K*%
%TO.N,Net-(D11-K)*%
X63394679Y16250468D03*
D14*
X63394679Y16250468D03*
D10*
%TO.P,D11,2,A*%
%TO.N,Net-(D11-A)*%
X63682293Y19537910D03*
D14*
X63682293Y19537910D03*
%TD*%
D12*
%TO.P,S10,1,A*%
%TO.N,Net-(S10-A)*%
X59167263Y10389952D03*
D13*
%TO.P,S10,2,B*%
%TO.N,Net-(D10-A)*%
X47469472Y9204973D03*
%TD*%
D31*
%TO.P,S1,1,A*%
%TO.N,Net-(S1-A)*%
X3275000Y5950000D03*
D32*
%TO.P,S1,2,B*%
%TO.N,Net-(D1-A)*%
X-8275000Y3750000D03*
%TD*%
D10*
%TO.P,D9,1,K*%
%TO.N,Net-(D12-K)*%
X47642068Y42724139D03*
D14*
X47642068Y42724139D03*
D10*
%TO.P,D9,2,A*%
%TO.N,Net-(D9-A)*%
X47929682Y46011581D03*
D14*
X47929682Y46011581D03*
%TD*%
D31*
%TO.P,S2,1,A*%
%TO.N,Net-(S1-A)*%
X3275000Y23950000D03*
D32*
%TO.P,S2,2,B*%
%TO.N,Net-(D2-A)*%
X-8275000Y21750000D03*
%TD*%
D10*
%TO.P,D1,1,K*%
%TO.N,Net-(D1-K)*%
X6975552Y-5843342D03*
D11*
X6975552Y-5843342D03*
D10*
%TO.P,D1,2,A*%
%TO.N,Net-(D1-A)*%
X6975552Y-2543342D03*
D11*
X6975552Y-2543342D03*
%TD*%
D10*
%TO.P,D7,1,K*%
%TO.N,Net-(D1-K)*%
X44504462Y6861130D03*
D14*
X44504462Y6861130D03*
D10*
%TO.P,D7,2,A*%
%TO.N,Net-(D7-A)*%
X44792076Y10148572D03*
D14*
X44792076Y10148572D03*
%TD*%
D12*
%TO.P,S16,1,A*%
%TO.N,Net-(S16-A)*%
X68295134Y-11488850D03*
D13*
%TO.P,S16,2,B*%
%TO.N,Net-(D16-A)*%
X56597343Y-12673829D03*
%TD*%
D34*
%TO.N,Net-(JST1-Pin_2)*%
X100822026Y2399669D03*
%TO.N,Net-(JST2-Pin_2)*%
X99000000Y8000000D03*
X100485821Y-514179D03*
%TO.N,Net-(S1-A)*%
X2000000Y45000000D03*
X-500000Y3000000D03*
X1000000Y21000000D03*
%TO.N,Net-(S4-A)*%
X44500000Y44500000D03*
X21500000Y29500000D03*
X22500000Y47500000D03*
X19000000Y11500000D03*
%TO.N,Net-(S16-A)*%
X39500000Y34000000D03*
X39098867Y16098868D03*
X45500000Y39500000D03*
X41500000Y52000000D03*
X55500000Y50500000D03*
X64500000Y-14500000D03*
%TO.N,Net-(S10-A)*%
X55000000Y8000000D03*
X58500000Y43500000D03*
X57000000Y25500000D03*
X84500000Y-18500000D03*
%TO.N,Net-(S13-A)*%
X103500000Y-28000000D03*
X72500000Y4000000D03*
X76500000Y40000000D03*
X87000000Y25000000D03*
X75500000Y22000000D03*
%TD*%
D35*
%TO.N,*%
X102420000Y41910000D02*
X104420000Y41740000D01*
X90780000Y37830000D02*
X88790000Y38000000D01*
X102376942Y39205175D02*
X104195020Y39205175D01*
X91230000Y42890000D02*
X89230000Y43060000D01*
X101980000Y36850000D02*
X103970000Y36670000D01*
X91010000Y40360000D02*
X89010000Y40530000D01*
X102202630Y39379487D02*
X102376942Y39205175D01*
%TO.N,Net-(D1-A)*%
X-6456658Y-2543342D02*
X6975552Y-2543342D01*
X-8275000Y-1225000D02*
X-7000000Y-2500000D01*
X-6500000Y-2500000D02*
X-6456658Y-2543342D01*
X-7000000Y-2500000D02*
X-6500000Y-2500000D01*
X-8275000Y3750000D02*
X-8275000Y-1225000D01*
%TO.N,Net-(D2-A)*%
X-6000000Y27500000D02*
X4000000Y27500000D01*
X4000000Y27500000D02*
X6975552Y24524448D01*
X-8275000Y25225000D02*
X-6000000Y27500000D01*
X6975552Y24524448D02*
X6975552Y15456658D01*
X-8275000Y21750000D02*
X-8275000Y25225000D01*
%TO.N,Net-(D3-A)*%
X-5500000Y33500000D02*
X-5456658Y33456658D01*
X-6000000Y33500000D02*
X-5500000Y33500000D01*
X-8275000Y39750000D02*
X-8275000Y35775000D01*
X-5456658Y33456658D02*
X6975552Y33456658D01*
X-8275000Y35775000D02*
X-6000000Y33500000D01*
%TO.N,Net-(D4-A)*%
X11693619Y8806381D02*
X11693619Y13338774D01*
X26337637Y5740207D02*
X14759793Y5740207D01*
X14759793Y5740207D02*
X11693619Y8806381D01*
%TO.N,Net-(D5-A)*%
X13262422Y31270279D02*
X13262422Y25737578D01*
X13262422Y25737578D02*
X15328289Y23671711D01*
X15328289Y23671711D02*
X27906440Y23671711D01*
%TO.N,Net-(D6-A)*%
X14831225Y43168775D02*
X16396784Y41603216D01*
X14831225Y49201784D02*
X14831225Y43168775D01*
X16396784Y41603216D02*
X29475243Y41603216D01*
%TO.N,Net-(D7-A)*%
X44792076Y10148572D02*
X33351428Y10148572D01*
X30148058Y13351942D02*
X30148058Y17747139D01*
X33351428Y10148572D02*
X30148058Y13351942D01*
%TO.N,Net-(D8-A)*%
X31716861Y31283139D02*
X34919924Y28080076D01*
X31716861Y35678644D02*
X31716861Y31283139D01*
X34919924Y28080076D02*
X46360879Y28080076D01*
%TO.N,Net-(D9-A)*%
X36488419Y46011581D02*
X47929682Y46011581D01*
X33285664Y49214336D02*
X36488419Y46011581D01*
X33285664Y53610148D02*
X33285664Y49214336D01*
%TO.N,Net-(D10-A)*%
X47469472Y9204973D02*
X47469472Y3530528D01*
X49393595Y1606405D02*
X62113490Y1606405D01*
X47469472Y3530528D02*
X49393595Y1606405D01*
%TO.N,Net-(D11-A)*%
X49038275Y27136477D02*
X49038275Y22038275D01*
X49000000Y22000000D02*
X51462090Y19537910D01*
X49038275Y22038275D02*
X49000000Y22000000D01*
X51462090Y19537910D02*
X63682293Y19537910D01*
%TO.N,Net-(D12-A)*%
X50500000Y39500000D02*
X52530585Y37469415D01*
X52530585Y37469415D02*
X65251097Y37469415D01*
X50607079Y39607079D02*
X50500000Y39500000D01*
X50607079Y45067982D02*
X50607079Y39607079D01*
%TO.N,Net-(D13-A)*%
X65226665Y5643780D02*
X65226665Y1273335D01*
X65226665Y1273335D02*
X68454787Y-1954787D01*
X68454787Y-1954787D02*
X79870683Y-1954787D01*
%TO.N,Net-(D14-A)*%
X66795468Y19204532D02*
X70023283Y15976717D01*
X66795468Y23575285D02*
X66795468Y19204532D01*
X70023283Y15976717D02*
X81439486Y15976717D01*
%TO.N,Net-(D15-A)*%
X68364272Y37635728D02*
X72091778Y33908222D01*
X68364272Y41506789D02*
X68364272Y37635728D01*
X72091778Y33908222D02*
X83008290Y33908222D01*
%TO.N,Net-(D16-A)*%
X56597343Y-12673829D02*
X56597343Y-19097343D01*
X56597343Y-19097343D02*
X57772397Y-20272397D01*
X57772397Y-20272397D02*
X71241361Y-20272397D01*
%TO.N,Net-(D17-A)*%
X77697526Y-22197526D02*
X81640977Y-26140977D01*
X81640977Y-26140977D02*
X89972569Y-26140977D01*
X77697526Y-15117873D02*
X77697526Y-22197526D01*
%TO.N,Net-(D18-A)*%
X96000000Y-24280811D02*
X97513680Y-22767131D01*
X104512548Y-36512548D02*
X96000000Y-28000000D01*
X96000000Y-28000000D02*
X96000000Y-24280811D01*
X106637768Y-36512548D02*
X104512548Y-36512548D01*
%TO.N,Net-(JST1-Pin_1)*%
X101509602Y17032699D02*
X102194656Y17717753D01*
X87077423Y17032699D02*
X101509602Y17032699D01*
%TO.N,Net-(JST2-Pin_2)*%
X100485821Y-514179D02*
X100485822Y-514179D01*
X100485821Y-514178D02*
X100485821Y-514179D01*
X99000000Y971643D02*
X100485821Y-514178D01*
X100485822Y-514179D02*
X100560559Y-588916D01*
X99000000Y8000000D02*
X99000000Y971643D01*
%TO.N,unconnected-(U1-VCC-Pad13)*%
X92890000Y43600000D02*
X99310000Y43040000D01*
X99310000Y43040000D02*
X100070000Y42120000D01*
X92070000Y42820000D02*
X92890000Y43600000D01*
%TO.N,unconnected-(U1-GND-Pad12)*%
X91850000Y40290000D02*
X92670000Y41070000D01*
X99090000Y40510000D02*
X99850000Y39590000D01*
X92670000Y41070000D02*
X99090000Y40510000D01*
%TO.N,Net-(D1-K)*%
X65387068Y-5242229D02*
X79583069Y-5242229D01*
X44504462Y2995538D02*
X49181037Y-1681037D01*
X44504462Y6861130D02*
X44504462Y2995538D01*
X6975552Y-5843342D02*
X17753916Y-5843342D01*
X26050023Y2452765D02*
X40096097Y2452765D01*
X40096097Y2452765D02*
X44504462Y6861130D01*
X17753916Y-5843342D02*
X26050023Y2452765D01*
X61825876Y-1681037D02*
X65387068Y-5242229D01*
X49181037Y-1681037D02*
X61825876Y-1681037D01*
%TO.N,Net-(D11-K)*%
X32884269Y20384269D02*
X37292634Y24792634D01*
X81151872Y12689275D02*
X81151872Y13254960D01*
X50249532Y16250468D02*
X63394679Y16250468D01*
X6975552Y12156658D02*
X9500000Y14681106D01*
X63394679Y16250468D02*
X66955872Y12689275D01*
X90500000Y28039601D02*
X88127510Y30412091D01*
X9500000Y14681106D02*
X9500000Y18000000D01*
X81151872Y13254960D02*
X86000000Y18103088D01*
X66955872Y12689275D02*
X81151872Y12689275D01*
X11884269Y20384269D02*
X27618826Y20384269D01*
X37292634Y24792634D02*
X46073265Y24792634D01*
X90500000Y26000000D02*
X90500000Y28039601D01*
X27618826Y20384269D02*
X32884269Y20384269D01*
X9500000Y18000000D02*
X11884269Y20384269D01*
X46073265Y20426735D02*
X50249532Y16250468D01*
X86000000Y21500000D02*
X90500000Y26000000D01*
X46073265Y24792634D02*
X46073265Y20426735D01*
X86000000Y18103088D02*
X86000000Y21500000D01*
%TO.N,Net-(D12-K)*%
X47642068Y39357932D02*
X52818027Y34181973D01*
X34315774Y38315774D02*
X38724139Y42724139D01*
X85042321Y32942425D02*
X88348886Y32942425D01*
X29187629Y38315774D02*
X34315774Y38315774D01*
X82720676Y30620780D02*
X85042321Y32942425D01*
X52818027Y34181973D02*
X64963483Y34181973D01*
X15134668Y38315774D02*
X29187629Y38315774D01*
X64963483Y34181973D02*
X71145456Y28000000D01*
X71145456Y28000000D02*
X80099896Y28000000D01*
X38724139Y42724139D02*
X47642068Y42724139D01*
X47642068Y42724139D02*
X47642068Y39357932D01*
X6975552Y30156658D02*
X15134668Y38315774D01*
X80099896Y28000000D02*
X82720676Y30620780D01*
%TO.N,Net-(D16-K)*%
X75559839Y-23559839D02*
X80500000Y-28500000D01*
X88119314Y-28500000D02*
X88871007Y-29251693D01*
X70953747Y-23559839D02*
X75559839Y-23559839D01*
X98867686Y-39248372D02*
X104792432Y-39248372D01*
X88871007Y-29251693D02*
X98867686Y-39248372D01*
X80500000Y-28500000D02*
X88119314Y-28500000D01*
%TO.N,Net-(S1-A)*%
X3125000Y6100000D02*
X3275000Y5950000D01*
X3275000Y23950000D02*
X3275000Y23275000D01*
X50500000Y57500000D02*
X53000000Y55000000D01*
X3275000Y5950000D02*
X325000Y3000000D01*
X70000000Y51000000D02*
X75000000Y46000000D01*
X75000000Y46000000D02*
X83000000Y46000000D01*
X3275000Y23275000D02*
X1000000Y21000000D01*
X87144305Y41855695D02*
X88987375Y41855695D01*
X3275000Y41950000D02*
X3275000Y43725000D01*
X27000000Y57500000D02*
X50500000Y57500000D01*
X83000000Y46000000D02*
X87144305Y41855695D01*
X94340000Y41760000D02*
X93580000Y42680000D01*
X3275000Y43725000D02*
X2000000Y45000000D01*
X61500000Y51000000D02*
X70000000Y51000000D01*
X325000Y3000000D02*
X-500000Y3000000D01*
X24500000Y55000000D02*
X27000000Y57500000D01*
X101580000Y41980000D02*
X100760000Y41200000D01*
X3275000Y23950000D02*
X3125000Y23800000D01*
X16325000Y55000000D02*
X24500000Y55000000D01*
X100760000Y41200000D02*
X94340000Y41760000D01*
X57500000Y55000000D02*
X61500000Y51000000D01*
X92711490Y41819624D02*
X93575805Y42683939D01*
X53000000Y55000000D02*
X57500000Y55000000D01*
X3275000Y41950000D02*
X16325000Y55000000D01*
X88987375Y41855695D02*
X89023446Y41819624D01*
X89023446Y41819624D02*
X92711490Y41819624D01*
%TO.N,Net-(S4-A)*%
X23642253Y47500000D02*
X26529016Y50386763D01*
X100530000Y38670000D02*
X94120000Y39230000D01*
X22500000Y47500000D02*
X23642253Y47500000D01*
X22004955Y29500000D02*
X21500000Y29500000D01*
X28365390Y50386763D02*
X34252153Y44500000D01*
X34252153Y44500000D02*
X44500000Y44500000D01*
X94120000Y39230000D02*
X93350000Y40150000D01*
X26529016Y50386763D02*
X28365390Y50386763D01*
X20367657Y11500000D02*
X19000000Y11500000D01*
X101360000Y39450000D02*
X100530000Y38670000D01*
X23391410Y14523753D02*
X20367657Y11500000D01*
X24960213Y32455258D02*
X22004955Y29500000D01*
%TO.N,Net-(S16-A)*%
X39500000Y34000000D02*
X40551029Y34000000D01*
X100310000Y36140000D02*
X93900000Y36700000D01*
X55500000Y50500000D02*
X57000000Y49000000D01*
X41845849Y18932118D02*
X41845849Y18845849D01*
X65283984Y-14500000D02*
X64500000Y-14500000D01*
X93900000Y36700000D02*
X93130000Y37620000D01*
X57000000Y49000000D02*
X70000000Y49000000D01*
X92248313Y36738532D02*
X93133051Y37623270D01*
X74000000Y45000000D02*
X81500000Y45000000D01*
X41845849Y18845849D02*
X39098867Y16098868D01*
X84500000Y39642784D02*
X87233006Y36909778D01*
X101140000Y36920000D02*
X100310000Y36140000D01*
X89190352Y36738532D02*
X92248313Y36738532D01*
X70000000Y49000000D02*
X74000000Y45000000D01*
X87233006Y36909778D02*
X89190352Y36738532D01*
X43414652Y36863623D02*
X45500000Y38948971D01*
X68295134Y-11488850D02*
X65283984Y-14500000D01*
X81500000Y45000000D02*
X84500000Y42000000D01*
X40551029Y34000000D02*
X43414652Y36863623D01*
X45500000Y38948971D02*
X45500000Y39500000D01*
X84500000Y42000000D02*
X84500000Y39642784D01*
X41500000Y52000000D02*
X42188328Y52000000D01*
X42188328Y52000000D02*
X44983455Y54795127D01*
%TO.N,Net-(S10-A)*%
X89319411Y-16899531D02*
X95500000Y-10718942D01*
X58500000Y43500000D02*
X59551909Y43500000D01*
X87718942Y-18500000D02*
X89319411Y-16899531D01*
X95500000Y7500000D02*
X99000000Y11000000D01*
X95500000Y-10718942D02*
X95500000Y7500000D01*
X104000000Y14000000D02*
X104000000Y22000000D01*
X90527240Y35472760D02*
X88570261Y35472760D01*
X57914610Y25500000D02*
X60736066Y28321456D01*
X55000000Y8000000D02*
X56777311Y8000000D01*
X84500000Y-18500000D02*
X87718942Y-18500000D01*
X56777311Y8000000D02*
X59167263Y10389952D01*
X101000000Y11000000D02*
X104000000Y14000000D01*
X59551909Y43500000D02*
X62304870Y46252961D01*
X99000000Y11000000D02*
X101000000Y11000000D01*
X57000000Y25500000D02*
X57914610Y25500000D01*
X104000000Y22000000D02*
X90527240Y35472760D01*
%TO.N,Net-(S13-A)*%
X77370295Y40000000D02*
X80062063Y42691768D01*
X78493259Y24760264D02*
X86760264Y24760264D01*
X75732995Y22000000D02*
X75500000Y22000000D01*
X107721215Y-28000000D02*
X103500000Y-28000000D01*
X74095697Y4000000D02*
X76924456Y6828759D01*
X108319289Y-27401926D02*
X107721215Y-28000000D01*
X72500000Y4000000D02*
X74095697Y4000000D01*
X78493259Y24760264D02*
X75732995Y22000000D01*
X86760264Y24760264D02*
X87000000Y25000000D01*
X76500000Y40000000D02*
X77370295Y40000000D01*
%TO.N,unconnected-(U1-V3-Pad11)*%
X91630000Y37760000D02*
X92450000Y38540000D01*
X98870000Y37970000D02*
X99630000Y37050000D01*
X92450000Y38540000D02*
X98870000Y37970000D01*
%TD*%
M02*
