M48
; DRILL file {KiCad 8.0.6} date 2024-11-20T19:49:40-0700
; FORMAT={-:-/ absolute / inch / decimal}
; #@! TF.CreationDate,2024-11-20T19:49:40-07:00
; #@! TF.GenerationSoftware,Kicad,Pcbnew,8.0.6
; #@! TF.FileFunction,NonPlated,1,2,NPTH
FMAT,2
INCH
; #@! TA.AperFunction,NonPlated,NPTH,ComponentDrill
T1C0.0354
; #@! TA.AperFunction,NonPlated,NPTH,ComponentDrill
T2C0.0670
; #@! TA.AperFunction,NonPlated,NPTH,ComponentDrill
T3C0.0866
; #@! TA.AperFunction,NonPlated,NPTH,ComponentDrill
T4C0.1181
; #@! TA.AperFunction,NonPlated,NPTH,ComponentDrill
T5C0.1350
%
G90
G05
T1
X4.0303Y0.0002
X4.0303Y0.0002
X4.0406Y0.1179
X4.0406Y0.1179
T2
X-0.2165Y1.4173
X-0.2165Y0.7087
X-0.2165Y0.0
X0.2165Y1.4173
X0.2165Y0.7087
X0.2165Y0.0
X0.5563Y0.3686
X0.6181Y1.0745
X0.6799Y1.7805
X0.9878Y0.3308
X1.0495Y1.0368
X1.1113Y1.7427
X1.2829Y0.5421
X1.3447Y1.2481
X1.4064Y1.954
X1.7143Y0.5044
X1.7761Y1.2103
X1.8379Y1.9163
X1.9648Y0.2058
X2.0266Y0.9118
X2.0884Y1.6177
X2.3242Y-0.6556
X2.3963Y0.1681
X2.458Y0.874
X2.5198Y1.58
X2.6639Y0.0656
X2.7257Y0.7716
X2.7556Y-0.6933
X2.7875Y1.4775
X3.0954Y0.0279
X3.1127Y-0.7708
X3.1571Y0.7338
X3.2189Y1.4398
X3.5209Y-0.9154
X3.8471Y-1.0798
X4.2062Y-1.322
T3
X0.0Y1.2008
X0.0Y-0.2165
X2.9843Y1.2429
X3.9091Y-1.3804
T4
X-0.1969Y1.565
X-0.1969Y0.8563
X-0.1969Y0.1476
X0.0Y1.6516
X0.0Y0.9429
X0.0Y0.2343
X0.1969Y1.565
X0.1969Y0.8563
X0.1969Y0.1476
X0.5888Y0.5139
X0.6506Y1.2199
X0.7124Y1.9258
X0.7925Y0.583
X0.8542Y1.289
X0.916Y1.995
X0.981Y0.4796
X1.0428Y1.1856
X1.1046Y1.8915
X1.3154Y0.6875
X1.3771Y1.3934
X1.4389Y2.0994
X1.519Y0.7566
X1.5808Y1.4626
X1.6426Y2.1685
X1.7076Y0.6532
X1.7693Y1.3591
X1.8311Y2.0651
X1.9973Y0.3512
X2.0591Y1.0571
X2.1209Y1.7631
X2.201Y0.4203
X2.2627Y1.1263
X2.3245Y1.8322
X2.3567Y-0.5102
X2.3895Y0.3168
X2.4513Y1.0228
X2.5131Y1.7288
X2.5603Y-0.4411
X2.6964Y0.211
X2.7489Y-0.5445
X2.7582Y0.9169
X2.82Y1.6229
X2.9001Y0.2801
X2.9618Y0.9861
X3.0236Y1.692
X3.0886Y0.1766
X3.1504Y0.8826
X3.1805Y-0.6382
X3.2122Y1.5886
X3.395Y-0.6223
X3.5516Y-0.7697
X3.946Y-0.9684
X4.1576Y-1.0067
X4.2724Y-1.1886
T5
X0.0Y1.4173
X0.0Y0.7087
X0.0Y0.0
X0.7721Y0.3497
X0.8338Y1.0556
X0.8956Y1.7616
X1.4986Y0.5232
X1.5604Y1.2292
X1.6221Y1.9352
X2.1806Y0.1869
X2.2423Y0.8929
X2.3041Y1.5989
X2.5399Y-0.6744
X2.8797Y0.0467
X2.9414Y0.7527
X3.0032Y1.4587
X3.3168Y-0.8431
X4.0267Y-1.2009
M30
