%TF.GenerationSoftware,KiCad,Pcbnew,8.0.6*%
%TF.CreationDate,2024-11-20T19:49:45-07:00*%
%TF.ProjectId,board,626f6172-642e-46b6-9963-61645f706362,v1.0.0*%
%TF.SameCoordinates,Original*%
%TF.FileFunction,Soldermask,Bot*%
%TF.FilePolarity,Negative*%
%FSLAX46Y46*%
G04 Gerber Fmt 4.6, Leading zero omitted, Abs format (unit mm)*
G04 Created by KiCad (PCBNEW 8.0.6) date 2024-11-20 19:49:45*
%MOMM*%
%LPD*%
G01*
G04 APERTURE LIST*
G04 Aperture macros list*
%AMRoundRect*
0 Rectangle with rounded corners*
0 $1 Rounding radius*
0 $2 $3 $4 $5 $6 $7 $8 $9 X,Y pos of 4 corners*
0 Add a 4 corners polygon primitive as box body*
4,1,4,$2,$3,$4,$5,$6,$7,$8,$9,$2,$3,0*
0 Add four circle primitives for the rounded corners*
1,1,$1+$1,$2,$3*
1,1,$1+$1,$4,$5*
1,1,$1+$1,$6,$7*
1,1,$1+$1,$8,$9*
0 Add four rect primitives between the rounded corners*
20,1,$1+$1,$2,$3,$4,$5,0*
20,1,$1+$1,$4,$5,$6,$7,0*
20,1,$1+$1,$6,$7,$8,$9,0*
20,1,$1+$1,$8,$9,$2,$3,0*%
%AMHorizOval*
0 Thick line with rounded ends*
0 $1 width*
0 $2 $3 position (X,Y) of the first rounded end (center of the circle)*
0 $4 $5 position (X,Y) of the second rounded end (center of the circle)*
0 Add line between two ends*
20,1,$1,$2,$3,$4,$5,0*
0 Add two circle primitives to create the rounded ends*
1,1,$1,$2,$3*
1,1,$1,$4,$5*%
%AMFreePoly0*
4,1,14,1.335355,1.335355,1.350000,1.300000,1.350000,-1.300000,1.335355,-1.335355,1.300000,-1.350000,0.000000,-1.350000,-0.035355,-1.335355,-1.335355,-0.035355,-1.350000,0.000000,-1.350000,1.300000,-1.335355,1.335355,-1.300000,1.350000,1.300000,1.350000,1.335355,1.335355,1.335355,1.335355,$1*%
%AMFreePoly1*
4,1,16,0.535355,0.660355,0.550000,0.625000,0.550000,-0.625000,0.535355,-0.660355,0.500000,-0.675000,-0.650000,-0.675000,-0.685355,-0.660355,-0.700000,-0.625000,-0.689043,-0.593765,-0.214031,0.000000,-0.689043,0.593765,-0.699694,0.630522,-0.681235,0.664043,-0.650000,0.675000,0.499999,0.675000,0.535355,0.660355,0.535355,0.660355,$1*%
%AMFreePoly2*
4,1,16,-0.214645,0.660355,-0.210957,0.656235,0.289043,0.031235,0.299694,-0.005522,0.289043,-0.031235,-0.210957,-0.656235,-0.244478,-0.674694,-0.250000,-0.675000,-0.499999,-0.675000,-0.535355,-0.660355,-0.550000,-0.625000,-0.550000,0.625000,-0.535355,0.660355,-0.500000,0.675000,-0.250000,0.675000,-0.214645,0.660355,-0.214645,0.660355,$1*%
G04 Aperture macros list end*
%ADD10C,0.900000*%
%ADD11RoundRect,0.050000X0.600000X-0.450000X0.600000X0.450000X-0.600000X0.450000X-0.600000X-0.450000X0*%
%ADD12C,1.801800*%
%ADD13C,3.100000*%
%ADD14C,3.529000*%
%ADD15FreePoly0,355.000000*%
%ADD16RoundRect,0.050000X-1.408356X-1.181751X1.181751X-1.408356X1.408356X1.181751X-1.181751X1.408356X0*%
%ADD17RoundRect,0.050000X0.558497X-0.500581X0.636937X0.395994X-0.558497X0.500581X-0.636937X-0.395994X0*%
%ADD18RoundRect,0.050000X0.794472X-0.671799X0.899059X0.523634X-0.794472X0.671799X-0.899059X-0.523634X0*%
%ADD19HorizOval,1.300000X-0.249049X0.021789X0.249049X-0.021789X0*%
%ADD20FreePoly0,340.500000*%
%ADD21RoundRect,0.050000X-1.659383X-0.791485X0.791485X-1.659383X1.659383X0.791485X-0.791485X1.659383X0*%
%ADD22RoundRect,0.050000X-0.794472X0.671799X-0.899059X-0.523634X0.794472X-0.671799X0.899059X0.523634X0*%
%ADD23RoundRect,0.050000X0.415372X-0.624473X0.715798X0.223905X-0.415372X0.624473X-0.715798X-0.223905X0*%
%ADD24C,2.300000*%
%ADD25FreePoly1,355.000000*%
%ADD26HorizOval,1.900000X0.473192X-0.041399X-0.473192X0.041399X0*%
%ADD27HorizOval,1.900000X-0.473192X0.041399X0.473192X-0.041399X0*%
%ADD28FreePoly1,175.000000*%
%ADD29FreePoly2,355.000000*%
%ADD30FreePoly2,175.000000*%
%ADD31C,1.000000*%
%ADD32FreePoly0,326.000000*%
%ADD33RoundRect,0.050000X-1.804700X-0.350798X0.350798X-1.804700X1.804700X0.350798X-0.350798X1.804700X0*%
%ADD34FreePoly0,0.000000*%
%ADD35RoundRect,0.050000X-1.300000X-1.300000X1.300000X-1.300000X1.300000X1.300000X-1.300000X1.300000X0*%
%ADD36RoundRect,0.050000X0.245786X-0.708583X0.749059X0.037551X-0.245786X0.708583X-0.749059X-0.037551X0*%
%ADD37RoundRect,0.102000X-0.716642X0.414035X-0.777651X-0.283301X0.716642X-0.414035X0.777651X0.283301X0*%
%ADD38RoundRect,0.102000X-0.354900X0.532960X-0.442056X-0.463235X0.354900X-0.532960X0.442056X0.463235X0*%
G04 APERTURE END LIST*
D10*
%TO.C,D2*%
X6975552Y12156658D03*
D11*
X6975552Y12156658D03*
D10*
X6975552Y15456658D03*
D11*
X6975552Y15456658D03*
%TD*%
D12*
%TO.C,S12*%
X53044685Y41090395D03*
D13*
X53869617Y44782547D03*
X59042333Y46538396D03*
D14*
X58523756Y40611038D03*
D13*
X63831567Y43910989D03*
D12*
X64002827Y40131681D03*
D15*
X55779795Y46823832D03*
D16*
X67094101Y43625554D03*
%TD*%
D10*
%TO.C,D12*%
X64963483Y34181973D03*
D17*
X64963483Y34181973D03*
D10*
X65251097Y37469415D03*
D17*
X65251097Y37469415D03*
%TD*%
D12*
%TO.C,S9*%
X35723270Y49632561D03*
D13*
X36548202Y53324713D03*
X41720918Y55080562D03*
D14*
X41202341Y49153204D03*
D13*
X46510152Y52453155D03*
D12*
X46681412Y48673847D03*
D15*
X38458380Y55365998D03*
D16*
X49772686Y52167720D03*
%TD*%
D10*
%TO.C,D10*%
X61825876Y-1681037D03*
D17*
X61825876Y-1681037D03*
D10*
X62113490Y1606405D03*
D17*
X62113490Y1606405D03*
%TD*%
D12*
%TO.C,S5*%
X15700028Y27292692D03*
D13*
X16524960Y30984844D03*
X21697676Y32740693D03*
D14*
X21179099Y26813335D03*
D13*
X26486910Y30113286D03*
D12*
X26658170Y26333978D03*
D15*
X18435138Y33026129D03*
D16*
X29749444Y29827851D03*
%TD*%
D18*
%TO.C,JST1*%
X87077423Y17032699D03*
D19*
X87251735Y19025089D03*
%TD*%
D10*
%TO.C,D5*%
X27618826Y20384269D03*
D17*
X27618826Y20384269D03*
D10*
X27906440Y23671711D03*
D17*
X27906440Y23671711D03*
%TD*%
D12*
%TO.C,S17*%
X79061581Y-19579092D03*
D13*
X80784677Y-16211090D03*
X86232260Y-15806313D03*
D14*
X84246109Y-21415030D03*
D13*
X90211092Y-19549159D03*
D12*
X89430637Y-23250968D03*
D20*
X83145109Y-14713096D03*
D21*
X93298243Y-20642376D03*
%TD*%
D10*
%TO.C,D4*%
X26050023Y2452765D03*
D17*
X26050023Y2452765D03*
D10*
X26337637Y5740207D03*
D17*
X26337637Y5740207D03*
%TD*%
D12*
%TO.C,S8*%
X34154467Y31701057D03*
D13*
X34979399Y35393209D03*
X40152115Y37149058D03*
D14*
X39633538Y31221700D03*
D13*
X44941349Y34521651D03*
D12*
X45112609Y30742343D03*
D15*
X36889577Y37434494D03*
D16*
X48203883Y34236216D03*
%TD*%
D22*
%TO.C,JST2*%
X102194656Y17717753D03*
D19*
X102020344Y15725363D03*
%TD*%
D12*
%TO.C,S15*%
X70801878Y37529202D03*
D13*
X71626810Y41221354D03*
X76799526Y42977203D03*
D14*
X76280949Y37049845D03*
D13*
X81588760Y40349796D03*
D12*
X81760020Y36570488D03*
D15*
X73536988Y43262639D03*
D16*
X84851294Y40064361D03*
%TD*%
D10*
%TO.C,D17*%
X88871007Y-29251693D03*
D23*
X88871007Y-29251693D03*
D10*
X89972569Y-26140977D03*
D23*
X89972569Y-26140977D03*
%TD*%
D12*
%TO.C,S14*%
X69233074Y19597698D03*
D13*
X70058006Y23289850D03*
X75230722Y25045699D03*
D14*
X74712145Y19118341D03*
D13*
X80019956Y22418292D03*
D12*
X80191216Y18638984D03*
D15*
X71968184Y25331135D03*
D16*
X83282490Y22132857D03*
%TD*%
D24*
%TO.C,H4*%
X0Y30500000D03*
%TD*%
D12*
%TO.C,S4*%
X14131225Y9361187D03*
D13*
X14956157Y13053339D03*
X20128873Y14809188D03*
D14*
X19610296Y8881830D03*
D13*
X24918107Y12181781D03*
D12*
X25089367Y8402473D03*
D15*
X16866335Y15094624D03*
D16*
X28180641Y11896346D03*
%TD*%
D10*
%TO.C,D6*%
X29187629Y38315774D03*
D17*
X29187629Y38315774D03*
D10*
X29475243Y41603216D03*
D17*
X29475243Y41603216D03*
%TD*%
D12*
%TO.C,S7*%
X32585664Y13769552D03*
D13*
X33410596Y17461704D03*
X38583312Y19217553D03*
D14*
X38064735Y13290195D03*
D13*
X43372546Y16590146D03*
D12*
X43543806Y12810838D03*
D15*
X35320774Y19502989D03*
D16*
X46635080Y16304711D03*
%TD*%
D10*
%TO.C,D14*%
X81151872Y12689275D03*
D17*
X81151872Y12689275D03*
D10*
X81439486Y15976717D03*
D17*
X81439486Y15976717D03*
%TD*%
D12*
%TO.C,S6*%
X17268831Y45224197D03*
D13*
X18093763Y48916349D03*
X23266479Y50672198D03*
D14*
X22747902Y44744840D03*
D13*
X28055713Y48044791D03*
D12*
X28226973Y44265483D03*
D15*
X20003941Y50957634D03*
D16*
X31318247Y47759356D03*
%TD*%
D25*
%TO.C,U1*%
X92068562Y42815805D03*
D10*
X93575805Y42683939D03*
D25*
X91847184Y40285471D03*
D10*
X93354429Y40153604D03*
D25*
X91625811Y37755136D03*
D10*
X93133050Y37623270D03*
D26*
X88097069Y35514159D03*
X87875694Y32983824D03*
X87654318Y30453490D03*
X87432943Y27923155D03*
D27*
X103561334Y26512104D03*
X103782709Y29042438D03*
X104004085Y31572773D03*
X104225461Y34103107D03*
D10*
X99632228Y37054666D03*
D28*
X101139470Y36922799D03*
D10*
X99853603Y39585000D03*
D28*
X101360846Y39453133D03*
D10*
X100074979Y42115335D03*
D28*
X101582221Y41983468D03*
D26*
X88761196Y43105162D03*
D29*
X91226778Y42889452D03*
D26*
X88539821Y40574828D03*
D29*
X91005402Y40359117D03*
D26*
X88318445Y38044493D03*
D29*
X90784026Y37828783D03*
D30*
X101981255Y36849152D03*
D27*
X104446836Y36633442D03*
D30*
X102202630Y39379487D03*
D27*
X104668212Y39163776D03*
D30*
X102424006Y41909821D03*
D27*
X104889587Y41694111D03*
%TD*%
D10*
%TO.C,D15*%
X82720676Y30620780D03*
D17*
X82720676Y30620780D03*
D10*
X83008290Y33908222D03*
D17*
X83008290Y33908222D03*
%TD*%
D31*
%TO.C,S20*%
X102369266Y5708D03*
X102630734Y2994292D03*
%TD*%
D10*
%TO.C,D16*%
X70953747Y-23559839D03*
D17*
X70953747Y-23559839D03*
D10*
X71241361Y-20272397D03*
D17*
X71241361Y-20272397D03*
%TD*%
D10*
%TO.C,D8*%
X46073265Y24792634D03*
D17*
X46073265Y24792634D03*
D10*
X46360879Y28080076D03*
D17*
X46360879Y28080076D03*
%TD*%
D12*
%TO.C,S18*%
X97717286Y-27427782D03*
D13*
X100228779Y-24598488D03*
X105604191Y-25570569D03*
D14*
X102276993Y-30503343D03*
D13*
X108519154Y-30190417D03*
D12*
X106836700Y-33578904D03*
D32*
X102889093Y-23739213D03*
D33*
X111234252Y-32021773D03*
%TD*%
D12*
%TO.C,S13*%
X67664271Y1666193D03*
D13*
X68489203Y5358345D03*
X73661919Y7114194D03*
D14*
X73143342Y1186836D03*
D13*
X78451153Y4486787D03*
D12*
X78622413Y707479D03*
D15*
X70399381Y7399630D03*
D16*
X81713687Y4201352D03*
%TD*%
D12*
%TO.C,S3*%
X-5500000Y36000000D03*
D13*
X-5000000Y39750000D03*
X0Y41950000D03*
D14*
X0Y36000000D03*
D13*
X5000000Y39750000D03*
D12*
X5500000Y36000000D03*
D34*
X-3275000Y41950000D03*
D35*
X8275000Y39750000D03*
%TD*%
D24*
%TO.C,H2*%
X75801592Y31570775D03*
%TD*%
D10*
%TO.C,D13*%
X79583069Y-5242229D03*
D17*
X79583069Y-5242229D03*
D10*
X79870683Y-1954787D03*
D17*
X79870683Y-1954787D03*
%TD*%
D12*
%TO.C,S11*%
X51475881Y23158890D03*
D13*
X52300813Y26851042D03*
X57473529Y28606891D03*
D14*
X56954952Y22679533D03*
D13*
X62262763Y25979484D03*
D12*
X62434023Y22200176D03*
D15*
X54210991Y28892327D03*
D16*
X65525297Y25694049D03*
%TD*%
D10*
%TO.C,D3*%
X6975552Y30156658D03*
D11*
X6975552Y30156658D03*
D10*
X6975552Y33456658D03*
D11*
X6975552Y33456658D03*
%TD*%
D10*
%TO.C,D18*%
X104792432Y-39248372D03*
D36*
X104792432Y-39248372D03*
D10*
X106637768Y-36512548D03*
D36*
X106637768Y-36512548D03*
%TD*%
D10*
%TO.C,D11*%
X63394679Y16250468D03*
D17*
X63394679Y16250468D03*
D10*
X63682293Y19537910D03*
D17*
X63682293Y19537910D03*
%TD*%
D12*
%TO.C,S10*%
X49907078Y5227386D03*
D13*
X50732010Y8919538D03*
X55904726Y10675387D03*
D14*
X55386149Y4748029D03*
D13*
X60693960Y8047980D03*
D12*
X60865220Y4268672D03*
D15*
X52642188Y10960823D03*
D16*
X63956494Y7762545D03*
%TD*%
D12*
%TO.C,S1*%
X-5500000Y0D03*
D13*
X-5000000Y3750000D03*
X0Y5950000D03*
D14*
X0Y0D03*
D13*
X5000000Y3750000D03*
D12*
X5500000Y0D03*
D34*
X-3275000Y5950000D03*
D35*
X8275000Y3750000D03*
%TD*%
D10*
%TO.C,D9*%
X47642068Y42724139D03*
D17*
X47642068Y42724139D03*
D10*
X47929682Y46011581D03*
D17*
X47929682Y46011581D03*
%TD*%
D12*
%TO.C,S2*%
X-5500000Y18000000D03*
D13*
X-5000000Y21750000D03*
X0Y23950000D03*
D14*
X0Y18000000D03*
D13*
X5000000Y21750000D03*
D12*
X5500000Y18000000D03*
D34*
X-3275000Y23950000D03*
D35*
X8275000Y21750000D03*
%TD*%
D10*
%TO.C,D1*%
X6975552Y-5843342D03*
D11*
X6975552Y-5843342D03*
D10*
X6975552Y-2543342D03*
D11*
X6975552Y-2543342D03*
%TD*%
D10*
%TO.C,D7*%
X44504462Y6861130D03*
D17*
X44504462Y6861130D03*
D10*
X44792076Y10148572D03*
D17*
X44792076Y10148572D03*
%TD*%
D12*
%TO.C,S16*%
X59034949Y-16651416D03*
D13*
X59859881Y-12959264D03*
X65032597Y-11203415D03*
D14*
X64514020Y-17130773D03*
D13*
X69821831Y-13830822D03*
D12*
X69993091Y-17610130D03*
D15*
X61770059Y-10917979D03*
D16*
X73084365Y-14116257D03*
%TD*%
D24*
%TO.C,H1*%
X99291432Y-35063050D03*
%TD*%
%TO.C,H3*%
X0Y-5500000D03*
%TD*%
D31*
%TO.C,S19*%
X102630733Y2994292D03*
X102369267Y5708D03*
D37*
X100952760Y3893961D03*
X100691292Y905376D03*
X100560559Y-588916D03*
D38*
X101722304Y5231982D03*
X101086067Y-2040239D03*
X103913933Y5040239D03*
X103277696Y-2231982D03*
%TD*%
M02*
