%TF.GenerationSoftware,KiCad,Pcbnew,8.0.6*%
%TF.CreationDate,2024-11-20T19:49:45-07:00*%
%TF.ProjectId,board,626f6172-642e-46b6-9963-61645f706362,v1.0.0*%
%TF.SameCoordinates,Original*%
%TF.FileFunction,Copper,L2,Bot*%
%TF.FilePolarity,Positive*%
%FSLAX46Y46*%
G04 Gerber Fmt 4.6, Leading zero omitted, Abs format (unit mm)*
G04 Created by KiCad (PCBNEW 8.0.6) date 2024-11-20 19:49:45*
%MOMM*%
%LPD*%
G01*
G04 APERTURE LIST*
G04 Aperture macros list*
%AMHorizOval*
0 Thick line with rounded ends*
0 $1 width*
0 $2 $3 position (X,Y) of the first rounded end (center of the circle)*
0 $4 $5 position (X,Y) of the second rounded end (center of the circle)*
0 Add line between two ends*
20,1,$1,$2,$3,$4,$5,0*
0 Add two circle primitives to create the rounded ends*
1,1,$1,$2,$3*
1,1,$1,$4,$5*%
%AMRotRect*
0 Rectangle, with rotation*
0 The origin of the aperture is its center*
0 $1 length*
0 $2 width*
0 $3 Rotation angle, in degrees counterclockwise*
0 Add horizontal line*
21,1,$1,$2,0,0,$3*%
%AMFreePoly0*
4,1,6,1.300000,-1.300000,0.000000,-1.300000,-1.300000,0.000000,-1.300000,1.300000,1.300000,1.300000,1.300000,-1.300000,1.300000,-1.300000,$1*%
%AMFreePoly1*
4,1,6,0.500000,-0.625000,-0.650000,-0.625000,-0.150000,0.000000,-0.650000,0.625000,0.500000,0.625000,0.500000,-0.625000,0.500000,-0.625000,$1*%
%AMFreePoly2*
4,1,6,0.250000,0.000000,-0.250000,-0.625000,-0.500000,-0.625000,-0.500000,0.625000,-0.250000,0.625000,0.250000,0.000000,0.250000,0.000000,$1*%
G04 Aperture macros list end*
%TA.AperFunction,ComponentPad*%
%ADD10C,0.800000*%
%TD*%
%TA.AperFunction,SMDPad,CuDef*%
%ADD11R,1.200000X0.900000*%
%TD*%
%TA.AperFunction,SMDPad,CuDef*%
%ADD12FreePoly0,355.000000*%
%TD*%
%TA.AperFunction,SMDPad,CuDef*%
%ADD13RotRect,2.600000X2.600000X355.000000*%
%TD*%
%TA.AperFunction,SMDPad,CuDef*%
%ADD14RotRect,0.900000X1.200000X85.000000*%
%TD*%
%TA.AperFunction,ComponentPad*%
%ADD15RotRect,1.200000X1.700000X85.000000*%
%TD*%
%TA.AperFunction,ComponentPad*%
%ADD16HorizOval,1.200000X-0.249049X0.021789X0.249049X-0.021789X0*%
%TD*%
%TA.AperFunction,SMDPad,CuDef*%
%ADD17FreePoly0,340.500000*%
%TD*%
%TA.AperFunction,SMDPad,CuDef*%
%ADD18RotRect,2.600000X2.600000X340.500000*%
%TD*%
%TA.AperFunction,ComponentPad*%
%ADD19RotRect,1.200000X1.700000X265.000000*%
%TD*%
%TA.AperFunction,SMDPad,CuDef*%
%ADD20RotRect,0.900000X1.200000X70.500000*%
%TD*%
%TA.AperFunction,SMDPad,CuDef*%
%ADD21FreePoly1,355.000000*%
%TD*%
%TA.AperFunction,ComponentPad*%
%ADD22HorizOval,1.800000X0.473192X-0.041399X-0.473192X0.041399X0*%
%TD*%
%TA.AperFunction,ComponentPad*%
%ADD23HorizOval,1.800000X-0.473192X0.041399X0.473192X-0.041399X0*%
%TD*%
%TA.AperFunction,SMDPad,CuDef*%
%ADD24FreePoly1,175.000000*%
%TD*%
%TA.AperFunction,SMDPad,CuDef*%
%ADD25FreePoly2,355.000000*%
%TD*%
%TA.AperFunction,SMDPad,CuDef*%
%ADD26FreePoly2,175.000000*%
%TD*%
%TA.AperFunction,SMDPad,CuDef*%
%ADD27FreePoly0,326.000000*%
%TD*%
%TA.AperFunction,SMDPad,CuDef*%
%ADD28RotRect,2.600000X2.600000X326.000000*%
%TD*%
%TA.AperFunction,SMDPad,CuDef*%
%ADD29FreePoly0,0.000000*%
%TD*%
%TA.AperFunction,SMDPad,CuDef*%
%ADD30R,2.600000X2.600000*%
%TD*%
%TA.AperFunction,SMDPad,CuDef*%
%ADD31RotRect,0.900000X1.200000X56.000000*%
%TD*%
%TA.AperFunction,SMDPad,CuDef*%
%ADD32RotRect,0.700000X1.500000X265.000000*%
%TD*%
%TA.AperFunction,SMDPad,CuDef*%
%ADD33RotRect,1.000000X0.800000X265.000000*%
%TD*%
%TA.AperFunction,ViaPad*%
%ADD34C,0.800000*%
%TD*%
%TA.AperFunction,Conductor*%
%ADD35C,0.250000*%
%TD*%
G04 APERTURE END LIST*
D10*
%TO.P,D2,1,K*%
%TO.N,Net-(D11-K)*%
X6975552Y12156658D03*
D11*
X6975552Y12156658D03*
D10*
%TO.P,D2,2,A*%
%TO.N,Net-(D2-A)*%
X6975552Y15456658D03*
D11*
X6975552Y15456658D03*
%TD*%
D12*
%TO.P,S12,1,A*%
%TO.N,Net-(S10-A)*%
X55779795Y46823832D03*
D13*
%TO.P,S12,2,B*%
%TO.N,Net-(D12-A)*%
X67094101Y43625554D03*
%TD*%
D10*
%TO.P,D12,1,K*%
%TO.N,Net-(D12-K)*%
X64963483Y34181973D03*
D14*
X64963483Y34181973D03*
D10*
%TO.P,D12,2,A*%
%TO.N,Net-(D12-A)*%
X65251097Y37469415D03*
D14*
X65251097Y37469415D03*
%TD*%
D12*
%TO.P,S9,1,A*%
%TO.N,Net-(S16-A)*%
X38458380Y55365998D03*
D13*
%TO.P,S9,2,B*%
%TO.N,Net-(D9-A)*%
X49772686Y52167720D03*
%TD*%
D10*
%TO.P,D10,1,K*%
%TO.N,Net-(D1-K)*%
X61825876Y-1681037D03*
D14*
X61825876Y-1681037D03*
D10*
%TO.P,D10,2,A*%
%TO.N,Net-(D10-A)*%
X62113490Y1606405D03*
D14*
X62113490Y1606405D03*
%TD*%
D12*
%TO.P,S5,1,A*%
%TO.N,Net-(S4-A)*%
X18435138Y33026129D03*
D13*
%TO.P,S5,2,B*%
%TO.N,Net-(D5-A)*%
X29749444Y29827851D03*
%TD*%
D15*
%TO.P,JST1,1,Pin_1*%
%TO.N,Net-(JST1-Pin_1)*%
X87077423Y17032699D03*
D16*
%TO.P,JST1,2,Pin_2*%
%TO.N,Net-(JST1-Pin_2)*%
X87251735Y19025089D03*
%TD*%
D10*
%TO.P,D5,1,K*%
%TO.N,Net-(D11-K)*%
X27618826Y20384269D03*
D14*
X27618826Y20384269D03*
D10*
%TO.P,D5,2,A*%
%TO.N,Net-(D5-A)*%
X27906440Y23671711D03*
D14*
X27906440Y23671711D03*
%TD*%
D17*
%TO.P,S17,1,A*%
%TO.N,Net-(S10-A)*%
X83145109Y-14713096D03*
D18*
%TO.P,S17,2,B*%
%TO.N,Net-(D17-A)*%
X93298243Y-20642376D03*
%TD*%
D10*
%TO.P,D4,1,K*%
%TO.N,Net-(D1-K)*%
X26050023Y2452765D03*
D14*
X26050023Y2452765D03*
D10*
%TO.P,D4,2,A*%
%TO.N,Net-(D4-A)*%
X26337637Y5740207D03*
D14*
X26337637Y5740207D03*
%TD*%
D12*
%TO.P,S8,1,A*%
%TO.N,Net-(S16-A)*%
X36889577Y37434494D03*
D13*
%TO.P,S8,2,B*%
%TO.N,Net-(D8-A)*%
X48203883Y34236216D03*
%TD*%
D19*
%TO.P,JST2,1,Pin_1*%
%TO.N,Net-(JST1-Pin_1)*%
X102194656Y17717753D03*
D16*
%TO.P,JST2,2,Pin_2*%
%TO.N,Net-(JST2-Pin_2)*%
X102020344Y15725363D03*
%TD*%
D12*
%TO.P,S15,1,A*%
%TO.N,Net-(S13-A)*%
X73536988Y43262639D03*
D13*
%TO.P,S15,2,B*%
%TO.N,Net-(D15-A)*%
X84851294Y40064361D03*
%TD*%
D10*
%TO.P,D17,1,K*%
%TO.N,Net-(D16-K)*%
X88871007Y-29251693D03*
D20*
X88871007Y-29251693D03*
D10*
%TO.P,D17,2,A*%
%TO.N,Net-(D17-A)*%
X89972569Y-26140977D03*
D20*
X89972569Y-26140977D03*
%TD*%
D12*
%TO.P,S14,1,A*%
%TO.N,Net-(S13-A)*%
X71968184Y25331135D03*
D13*
%TO.P,S14,2,B*%
%TO.N,Net-(D14-A)*%
X83282490Y22132857D03*
%TD*%
D12*
%TO.P,S4,1,A*%
%TO.N,Net-(S4-A)*%
X16866335Y15094624D03*
D13*
%TO.P,S4,2,B*%
%TO.N,Net-(D4-A)*%
X28180641Y11896346D03*
%TD*%
D10*
%TO.P,D6,1,K*%
%TO.N,Net-(D12-K)*%
X29187629Y38315774D03*
D14*
X29187629Y38315774D03*
D10*
%TO.P,D6,2,A*%
%TO.N,Net-(D6-A)*%
X29475243Y41603216D03*
D14*
X29475243Y41603216D03*
%TD*%
D12*
%TO.P,S7,1,A*%
%TO.N,Net-(S16-A)*%
X35320774Y19502989D03*
D13*
%TO.P,S7,2,B*%
%TO.N,Net-(D7-A)*%
X46635080Y16304711D03*
%TD*%
D10*
%TO.P,D14,1,K*%
%TO.N,Net-(D11-K)*%
X81151872Y12689275D03*
D14*
X81151872Y12689275D03*
D10*
%TO.P,D14,2,A*%
%TO.N,Net-(D14-A)*%
X81439486Y15976717D03*
D14*
X81439486Y15976717D03*
%TD*%
D12*
%TO.P,S6,1,A*%
%TO.N,Net-(S4-A)*%
X20003941Y50957634D03*
D13*
%TO.P,S6,2,B*%
%TO.N,Net-(D6-A)*%
X31318247Y47759356D03*
%TD*%
D21*
%TO.P,U1,0,P0*%
%TO.N,Net-(S1-A)*%
X92068562Y42815805D03*
D10*
X93575805Y42683939D03*
D21*
%TO.P,U1,1,P1*%
%TO.N,Net-(S4-A)*%
X91847184Y40285471D03*
D10*
X93354429Y40153604D03*
D21*
%TO.P,U1,2,P2*%
%TO.N,Net-(S16-A)*%
X91625811Y37755136D03*
D10*
X93133050Y37623270D03*
D22*
%TO.P,U1,3,P3*%
%TO.N,Net-(S10-A)*%
X88097069Y35514159D03*
%TO.P,U1,4,P4*%
%TO.N,Net-(D12-K)*%
X87875694Y32983824D03*
%TO.P,U1,5,P5*%
%TO.N,Net-(D11-K)*%
X87654318Y30453490D03*
%TO.P,U1,6,P6*%
%TO.N,Net-(D1-K)*%
X87432943Y27923155D03*
D23*
%TO.P,U1,7,P7*%
%TO.N,Net-(D16-K)*%
X103561334Y26512104D03*
%TO.P,U1,8,P8*%
%TO.N,Net-(S13-A)*%
X103782709Y29042438D03*
%TO.P,U1,9,P9*%
%TO.N,unconnected-(U1-P9-Pad9)*%
X104004085Y31572773D03*
%TO.P,U1,10,P10*%
%TO.N,unconnected-(U1-P10-Pad10)*%
X104225461Y34103107D03*
D10*
%TO.P,U1,11,V3*%
%TO.N,unconnected-(U1-V3-Pad11)*%
X99632228Y37054666D03*
D24*
X101139470Y36922799D03*
D10*
%TO.P,U1,12,GND*%
%TO.N,unconnected-(U1-GND-Pad12)*%
X99853603Y39585000D03*
D24*
X101360846Y39453133D03*
D10*
%TO.P,U1,13,VCC*%
%TO.N,unconnected-(U1-VCC-Pad13)*%
X100074979Y42115335D03*
D24*
X101582221Y41983468D03*
D22*
%TO.P,U1,_1_0*%
%TO.N,N/C*%
X88761196Y43105162D03*
D25*
X91226778Y42889452D03*
D22*
%TO.P,U1,_1_1*%
X88539821Y40574828D03*
D25*
X91005402Y40359117D03*
D22*
%TO.P,U1,_1_2*%
X88318445Y38044493D03*
D25*
X90784026Y37828783D03*
D26*
%TO.P,U1,_1_11*%
X101981255Y36849152D03*
D23*
X104446836Y36633442D03*
D26*
%TO.P,U1,_1_12*%
X102202630Y39379487D03*
D23*
X104668212Y39163776D03*
D26*
%TO.P,U1,_1_13*%
X102424006Y41909821D03*
D23*
X104889587Y41694111D03*
%TD*%
D10*
%TO.P,D15,1,K*%
%TO.N,Net-(D12-K)*%
X82720676Y30620780D03*
D14*
X82720676Y30620780D03*
D10*
%TO.P,D15,2,A*%
%TO.N,Net-(D15-A)*%
X83008290Y33908222D03*
D14*
X83008290Y33908222D03*
%TD*%
D10*
%TO.P,D16,1,K*%
%TO.N,Net-(D16-K)*%
X70953747Y-23559839D03*
D14*
X70953747Y-23559839D03*
D10*
%TO.P,D16,2,A*%
%TO.N,Net-(D16-A)*%
X71241361Y-20272397D03*
D14*
X71241361Y-20272397D03*
%TD*%
D10*
%TO.P,D8,1,K*%
%TO.N,Net-(D11-K)*%
X46073265Y24792634D03*
D14*
X46073265Y24792634D03*
D10*
%TO.P,D8,2,A*%
%TO.N,Net-(D8-A)*%
X46360879Y28080076D03*
D14*
X46360879Y28080076D03*
%TD*%
D27*
%TO.P,S18,1,A*%
%TO.N,Net-(S13-A)*%
X102889093Y-23739213D03*
D28*
%TO.P,S18,2,B*%
%TO.N,Net-(D18-A)*%
X111234252Y-32021773D03*
%TD*%
D12*
%TO.P,S13,1,A*%
%TO.N,Net-(S13-A)*%
X70399381Y7399630D03*
D13*
%TO.P,S13,2,B*%
%TO.N,Net-(D13-A)*%
X81713687Y4201352D03*
%TD*%
D29*
%TO.P,S3,1,A*%
%TO.N,Net-(S1-A)*%
X-3275000Y41950000D03*
D30*
%TO.P,S3,2,B*%
%TO.N,Net-(D3-A)*%
X8275000Y39750000D03*
%TD*%
D10*
%TO.P,D13,1,K*%
%TO.N,Net-(D1-K)*%
X79583069Y-5242229D03*
D14*
X79583069Y-5242229D03*
D10*
%TO.P,D13,2,A*%
%TO.N,Net-(D13-A)*%
X79870683Y-1954787D03*
D14*
X79870683Y-1954787D03*
%TD*%
D12*
%TO.P,S11,1,A*%
%TO.N,Net-(S10-A)*%
X54210991Y28892327D03*
D13*
%TO.P,S11,2,B*%
%TO.N,Net-(D11-A)*%
X65525297Y25694049D03*
%TD*%
D10*
%TO.P,D3,1,K*%
%TO.N,Net-(D12-K)*%
X6975552Y30156658D03*
D11*
X6975552Y30156658D03*
D10*
%TO.P,D3,2,A*%
%TO.N,Net-(D3-A)*%
X6975552Y33456658D03*
D11*
X6975552Y33456658D03*
%TD*%
D10*
%TO.P,D18,1,K*%
%TO.N,Net-(D16-K)*%
X104792432Y-39248372D03*
D31*
X104792432Y-39248372D03*
D10*
%TO.P,D18,2,A*%
%TO.N,Net-(D18-A)*%
X106637768Y-36512548D03*
D31*
X106637768Y-36512548D03*
%TD*%
D10*
%TO.P,D11,1,K*%
%TO.N,Net-(D11-K)*%
X63394679Y16250468D03*
D14*
X63394679Y16250468D03*
D10*
%TO.P,D11,2,A*%
%TO.N,Net-(D11-A)*%
X63682293Y19537910D03*
D14*
X63682293Y19537910D03*
%TD*%
D12*
%TO.P,S10,1,A*%
%TO.N,Net-(S10-A)*%
X52642188Y10960823D03*
D13*
%TO.P,S10,2,B*%
%TO.N,Net-(D10-A)*%
X63956494Y7762545D03*
%TD*%
D29*
%TO.P,S1,1,A*%
%TO.N,Net-(S1-A)*%
X-3275000Y5950000D03*
D30*
%TO.P,S1,2,B*%
%TO.N,Net-(D1-A)*%
X8275000Y3750000D03*
%TD*%
D10*
%TO.P,D9,1,K*%
%TO.N,Net-(D12-K)*%
X47642068Y42724139D03*
D14*
X47642068Y42724139D03*
D10*
%TO.P,D9,2,A*%
%TO.N,Net-(D9-A)*%
X47929682Y46011581D03*
D14*
X47929682Y46011581D03*
%TD*%
D29*
%TO.P,S2,1,A*%
%TO.N,Net-(S1-A)*%
X-3275000Y23950000D03*
D30*
%TO.P,S2,2,B*%
%TO.N,Net-(D2-A)*%
X8275000Y21750000D03*
%TD*%
D10*
%TO.P,D1,1,K*%
%TO.N,Net-(D1-K)*%
X6975552Y-5843342D03*
D11*
X6975552Y-5843342D03*
D10*
%TO.P,D1,2,A*%
%TO.N,Net-(D1-A)*%
X6975552Y-2543342D03*
D11*
X6975552Y-2543342D03*
%TD*%
D10*
%TO.P,D7,1,K*%
%TO.N,Net-(D1-K)*%
X44504462Y6861130D03*
D14*
X44504462Y6861130D03*
D10*
%TO.P,D7,2,A*%
%TO.N,Net-(D7-A)*%
X44792076Y10148572D03*
D14*
X44792076Y10148572D03*
%TD*%
D12*
%TO.P,S16,1,A*%
%TO.N,Net-(S16-A)*%
X61770059Y-10917979D03*
D13*
%TO.P,S16,2,B*%
%TO.N,Net-(D16-A)*%
X73084365Y-14116257D03*
%TD*%
D32*
%TO.P,S19,1*%
%TO.N,unconnected-(S19-Pad1)*%
X100952760Y3893961D03*
%TO.P,S19,2*%
%TO.N,Net-(JST1-Pin_2)*%
X100691292Y905376D03*
%TO.P,S19,3*%
%TO.N,Net-(JST2-Pin_2)*%
X100560559Y-588916D03*
D33*
%TO.P,S19,SH1*%
%TO.N,N/C*%
X101722304Y5231982D03*
%TO.P,S19,SH2*%
X101086067Y-2040239D03*
%TO.P,S19,SH3*%
X103913933Y5040239D03*
%TO.P,S19,SH4*%
X103277696Y-2231982D03*
%TD*%
D34*
%TO.N,Net-(JST1-Pin_2)*%
X100822026Y2399669D03*
%TO.N,Net-(JST2-Pin_2)*%
X99000000Y8000000D03*
X100485821Y-514179D03*
%TO.N,Net-(S1-A)*%
X2000000Y45000000D03*
X-500000Y3000000D03*
X1000000Y21000000D03*
%TO.N,Net-(S4-A)*%
X44500000Y44500000D03*
X21500000Y29500000D03*
X22500000Y47500000D03*
X19000000Y11500000D03*
%TO.N,Net-(S16-A)*%
X39500000Y34000000D03*
X39098867Y16098868D03*
X45500000Y39500000D03*
X41500000Y52000000D03*
X55500000Y50500000D03*
X64500000Y-14500000D03*
%TO.N,Net-(S10-A)*%
X55000000Y8000000D03*
X58500000Y43500000D03*
X57000000Y25500000D03*
X84500000Y-18500000D03*
%TO.N,Net-(S13-A)*%
X103500000Y-28000000D03*
X72500000Y4000000D03*
X76500000Y40000000D03*
X87000000Y25000000D03*
X75500000Y22000000D03*
%TD*%
D35*
%TO.N,Net-(D11-A)*%
X65525297Y21380914D02*
X63682293Y19537910D01*
X65525297Y25694049D02*
X65525297Y21380914D01*
%TO.N,*%
X101980000Y36850000D02*
X103970000Y36670000D01*
X90780000Y37830000D02*
X88790000Y38000000D01*
X102372117Y39210000D02*
X104200000Y39210000D01*
X102420000Y41910000D02*
X104420000Y41740000D01*
X91010000Y40360000D02*
X89010000Y40530000D01*
X102202630Y39379487D02*
X102372117Y39210000D01*
X91230000Y42890000D02*
X89230000Y43060000D01*
%TO.N,Net-(D1-A)*%
X8275000Y-1243894D02*
X6975552Y-2543342D01*
X8275000Y3750000D02*
X8275000Y-1243894D01*
%TO.N,Net-(D2-A)*%
X8275000Y21750000D02*
X8275000Y16756106D01*
X8275000Y16756106D02*
X6975552Y15456658D01*
%TO.N,Net-(D3-A)*%
X8275000Y39750000D02*
X8275000Y34756106D01*
X8275000Y34756106D02*
X6975552Y33456658D01*
%TO.N,Net-(D4-A)*%
X28180641Y11896346D02*
X28180641Y7583211D01*
X28180641Y7583211D02*
X26337637Y5740207D01*
%TO.N,Net-(D5-A)*%
X29749444Y25514715D02*
X27906440Y23671711D01*
X29749444Y29827851D02*
X29749444Y25514715D01*
%TO.N,Net-(D6-A)*%
X31318247Y43446220D02*
X29475243Y41603216D01*
X31318247Y47759356D02*
X31318247Y43446220D01*
%TO.N,Net-(D7-A)*%
X46635080Y11991576D02*
X44792076Y10148572D01*
X46635080Y16304711D02*
X46635080Y11991576D01*
%TO.N,Net-(D8-A)*%
X48203883Y29923080D02*
X46360879Y28080076D01*
X48203883Y34236216D02*
X48203883Y29923080D01*
%TO.N,Net-(D9-A)*%
X49772686Y47854585D02*
X47929682Y46011581D01*
X49772686Y52167720D02*
X49772686Y47854585D01*
%TO.N,Net-(D10-A)*%
X63956494Y3449409D02*
X62113490Y1606405D01*
X63956494Y7762545D02*
X63956494Y3449409D01*
%TO.N,Net-(D12-A)*%
X67094101Y39312419D02*
X65251097Y37469415D01*
X67094101Y43625554D02*
X67094101Y39312419D01*
%TO.N,Net-(D13-A)*%
X81713687Y4201352D02*
X81713687Y-111783D01*
X81713687Y-111783D02*
X79870683Y-1954787D01*
%TO.N,Net-(D14-A)*%
X83282490Y22132857D02*
X83282490Y17819721D01*
X83282490Y17819721D02*
X81439486Y15976717D01*
%TO.N,Net-(D15-A)*%
X84851294Y40064361D02*
X84851294Y35751226D01*
X84851294Y35751226D02*
X83008290Y33908222D01*
%TO.N,Net-(D16-A)*%
X71241361Y-20272397D02*
X73084365Y-18429393D01*
X73084365Y-18429393D02*
X73084365Y-14116257D01*
%TO.N,Net-(D17-A)*%
X93298243Y-22815303D02*
X89972569Y-26140977D01*
X93298243Y-20642376D02*
X93298243Y-22815303D01*
%TO.N,Net-(D18-A)*%
X106743477Y-36512548D02*
X106637768Y-36512548D01*
X111234252Y-32021773D02*
X106743477Y-36512548D01*
%TO.N,Net-(JST1-Pin_2)*%
X88301482Y17975342D02*
X88301482Y8198518D01*
X100822026Y1036110D02*
X100691292Y905376D01*
X87251735Y19025089D02*
X88301482Y17975342D01*
X95594624Y905376D02*
X100691292Y905376D01*
X100822026Y2399669D02*
X100822026Y1036110D01*
X88301482Y8198518D02*
X95594624Y905376D01*
%TO.N,Net-(JST2-Pin_2)*%
X102020344Y11020344D02*
X99000000Y8000000D01*
X102020344Y15725363D02*
X102020344Y11020344D01*
%TO.N,unconnected-(U1-VCC-Pad13)*%
X101580000Y41980000D02*
X100070000Y42120000D01*
%TO.N,unconnected-(U1-GND-Pad12)*%
X101360000Y39450000D02*
X99850000Y39590000D01*
%TO.N,Net-(D1-K)*%
X78000000Y19451197D02*
X78000000Y23500000D01*
X76576152Y18027349D02*
X78000000Y19451197D01*
X78000000Y23500000D02*
X82381756Y27881756D01*
X79583069Y-5242229D02*
X76576152Y-2235312D01*
X82381756Y27881756D02*
X87906135Y27881756D01*
X76576152Y-2235312D02*
X76576152Y18027349D01*
%TO.N,Net-(D16-K)*%
X99534639Y23000000D02*
X103088142Y26553503D01*
X88000000Y23000000D02*
X99534639Y23000000D01*
X92212157Y-32592843D02*
X103142492Y-32592843D01*
X107500000Y-24500000D02*
X85853364Y-2853364D01*
X103142492Y-32592843D02*
X107500000Y-28235335D01*
X85853364Y20853364D02*
X88000000Y23000000D01*
X88871007Y-29251693D02*
X92212157Y-32592843D01*
X107500000Y-28235335D02*
X107500000Y-24500000D01*
X85853364Y-2853364D02*
X85853364Y20853364D01*
%TO.N,Net-(S1-A)*%
X-3275000Y5775000D02*
X-500000Y3000000D01*
X-3275000Y5950000D02*
X-3275000Y5775000D01*
X-3125000Y23800000D02*
X-3125000Y6100000D01*
X-225000Y45000000D02*
X2000000Y45000000D01*
X-3275000Y41950000D02*
X-225000Y45000000D01*
X-3125000Y41800000D02*
X-3125000Y24100000D01*
X-325000Y21000000D02*
X1000000Y21000000D01*
X-3275000Y23950000D02*
X-325000Y21000000D01*
X-3275000Y41950000D02*
X-3125000Y41800000D01*
X-3125000Y6100000D02*
X-3275000Y5950000D01*
X-3275000Y23950000D02*
X-3125000Y23800000D01*
X92070000Y42820000D02*
X93580000Y42680000D01*
X-3125000Y24100000D02*
X-3275000Y23950000D01*
%TO.N,Net-(S4-A)*%
X87994975Y41942519D02*
X88611412Y41888588D01*
X71000000Y50500000D02*
X75000000Y46500000D01*
X43500000Y53000000D02*
X46000000Y55500000D01*
X44500000Y44500000D02*
X43500000Y45500000D01*
X91847184Y40917878D02*
X91847184Y40285471D01*
X90975481Y41789581D02*
X91847184Y40917878D01*
X20003941Y50957634D02*
X20003941Y49996059D01*
X18435138Y33026129D02*
X18435138Y32564862D01*
X87057481Y41942519D02*
X87994975Y41942519D01*
X16866335Y15094624D02*
X16866335Y13633665D01*
X22500000Y47500000D02*
X22426317Y47573684D01*
X20003941Y49996059D02*
X22500000Y47500000D01*
X88611412Y41888588D02*
X88710419Y41789581D01*
X16866335Y13633665D02*
X19000000Y11500000D01*
X20003941Y34594932D02*
X18435138Y33026129D01*
X82500000Y46500000D02*
X87057481Y41942519D01*
X18435138Y16663427D02*
X16866335Y15094624D01*
X18435138Y33026129D02*
X18435138Y16663427D01*
X18435138Y32564862D02*
X21500000Y29500000D01*
X75000000Y46500000D02*
X82500000Y46500000D01*
X56000000Y55500000D02*
X61000000Y50500000D01*
X43500000Y45500000D02*
X43500000Y53000000D01*
X91850000Y40290000D02*
X93350000Y40150000D01*
X20003941Y50957634D02*
X20003941Y34594932D01*
X88710419Y41789581D02*
X90975481Y41789581D01*
X46000000Y55500000D02*
X56000000Y55500000D01*
X61000000Y50500000D02*
X71000000Y50500000D01*
%TO.N,Net-(S16-A)*%
X38724895Y16098868D02*
X35320774Y19502989D01*
X55500000Y50500000D02*
X55652187Y50652188D01*
X38458380Y55365998D02*
X38458380Y39003297D01*
X39098867Y16098868D02*
X38724895Y16098868D01*
X45500000Y39500000D02*
X48500000Y39500000D01*
X35320774Y19502989D02*
X35320774Y-1320774D01*
X61770059Y-11770059D02*
X61770059Y-10917979D01*
X38458380Y54041620D02*
X40500000Y52000000D01*
X36889577Y36610423D02*
X39500000Y34000000D01*
X35320774Y-1320774D02*
X44917979Y-10917979D01*
X38458380Y39003297D02*
X36889577Y37434494D01*
X44917979Y-10917979D02*
X61770059Y-10917979D01*
X48500000Y39500000D02*
X50000000Y41000000D01*
X64500000Y-14500000D02*
X61770059Y-11770059D01*
X40500000Y52000000D02*
X41500000Y52000000D01*
X91630000Y37760000D02*
X93130000Y37620000D01*
X50000000Y45000000D02*
X55500000Y50500000D01*
X36889577Y21071792D02*
X35320774Y19502989D01*
X38458380Y55365998D02*
X38458380Y54041620D01*
X50000000Y41000000D02*
X50000000Y45000000D01*
X36889577Y37434494D02*
X36889577Y21071792D01*
X36889577Y37434494D02*
X36889577Y36610423D01*
%TO.N,Net-(S10-A)*%
X55779795Y30461131D02*
X54210991Y28892327D01*
X55779795Y46823832D02*
X55779795Y30461131D01*
X55779795Y46823832D02*
X55779795Y46220205D01*
X54210991Y28892327D02*
X54210991Y28289009D01*
X75882901Y-12382901D02*
X69000000Y-5500000D01*
X55779795Y46220205D02*
X58500000Y43500000D01*
X80814914Y-12382901D02*
X75882901Y-12382901D01*
X83145109Y-17145109D02*
X84500000Y-18500000D01*
X54210991Y12529626D02*
X52642188Y10960823D01*
X58000000Y-5500000D02*
X52642188Y-142188D01*
X69000000Y-5500000D02*
X58000000Y-5500000D01*
X52642188Y10960823D02*
X52642188Y10357812D01*
X52642188Y10357812D02*
X55000000Y8000000D01*
X83145109Y-14713096D02*
X80814914Y-12382901D01*
X54210991Y28289009D02*
X57000000Y25500000D01*
X83145109Y-17145109D02*
X83145109Y-14713096D01*
X54210991Y28892327D02*
X54210991Y12529626D01*
X52642188Y-142188D02*
X52642188Y10960823D01*
%TO.N,Net-(S13-A)*%
X85649880Y-6500000D02*
X75000000Y-6500000D01*
X70399381Y7399630D02*
X70399381Y6100619D01*
X73536988Y26899939D02*
X71968184Y25331135D01*
X99225680Y25000000D02*
X103309517Y29083837D01*
X102889093Y-27389093D02*
X102889093Y-23739213D01*
X103500000Y-28000000D02*
X102889093Y-27389093D01*
X102889093Y-23739213D02*
X85649880Y-6500000D01*
X73536988Y43262639D02*
X73536988Y42963012D01*
X71968184Y8968433D02*
X70399381Y7399630D01*
X70399381Y-1899381D02*
X70399381Y7399630D01*
X73536988Y43262639D02*
X73536988Y26899939D01*
X70399381Y6100619D02*
X72500000Y4000000D01*
X71968184Y25331135D02*
X71968184Y8968433D01*
X75000000Y-6500000D02*
X70399381Y-1899381D01*
X75500000Y22000000D02*
X75299319Y22000000D01*
X73536988Y42963012D02*
X76500000Y40000000D01*
X75299319Y22000000D02*
X71968184Y25331135D01*
X87000000Y25000000D02*
X99225680Y25000000D01*
%TO.N,unconnected-(U1-V3-Pad11)*%
X101140000Y36920000D02*
X99630000Y37050000D01*
%TD*%
M02*
