M48
; DRILL file {KiCad 8.0.6} date 2024-11-20T19:49:40-0700
; FORMAT={-:-/ absolute / inch / decimal}
; #@! TF.CreationDate,2024-11-20T19:49:40-07:00
; #@! TF.GenerationSoftware,Kicad,Pcbnew,8.0.6
; #@! TF.FileFunction,Plated,1,2,PTH
FMAT,2
INCH
; #@! TA.AperFunction,Plated,PTH,ViaDrill
T1C0.0157
; #@! TA.AperFunction,Plated,PTH,ComponentDrill
T2C0.0157
; #@! TA.AperFunction,Plated,PTH,ComponentDrill
T3C0.0295
; #@! TA.AperFunction,Plated,PTH,ComponentDrill
T4C0.0394
%
G90
G05
T1
X-0.0197Y0.1181
X0.0394Y0.8268
X0.0787Y1.7717
X0.748Y0.4528
X0.8465Y1.1614
X0.8858Y1.8701
X1.5393Y0.6338
X1.5551Y1.3386
X1.6339Y2.0472
X1.752Y1.752
X1.7913Y1.5551
X2.1654Y0.315
X2.185Y1.9882
X2.2441Y1.0039
X2.3031Y1.7126
X2.5394Y-0.5709
X2.8543Y0.1575
X2.9724Y0.8661
X3.0118Y1.5748
X3.3268Y-0.7283
X3.4252Y0.9843
X3.8976Y0.315
X3.9561Y-0.0202
X3.9694Y0.0945
X4.0748Y-1.1024
T2
X0.2746Y1.3172
X0.2746Y1.1873
X0.2746Y0.6085
X0.2746Y0.4786
X0.2746Y-0.1001
X0.2746Y-0.2301
X1.0256Y0.0966
X1.0369Y0.226
X1.0874Y0.8025
X1.0987Y0.932
X1.1491Y1.5085
X1.1604Y1.6379
X1.7521Y0.2701
X1.7635Y0.3996
X1.8139Y0.9761
X1.8252Y1.1055
X1.8757Y1.6821
X1.887Y1.8115
X2.4341Y-0.0662
X2.4454Y0.0632
X2.4959Y0.6398
X2.5072Y0.7692
X2.5576Y1.3457
X2.5689Y1.4752
X2.7935Y-0.9276
X2.8048Y-0.7981
X3.1332Y-0.2064
X3.1445Y-0.077
X3.195Y0.4996
X3.2063Y0.629
X3.2567Y1.2055
X3.268Y1.335
X3.4989Y-1.1516
X3.5422Y-1.0292
X3.6667Y1.4812
X3.6754Y1.5809
X3.6841Y1.6805
X3.9225Y1.4588
X3.9312Y1.5585
X3.94Y1.6581
X4.1257Y-1.5452
X4.1983Y-1.4375
T3
X3.4282Y0.6706
X3.4351Y0.749
X4.0165Y0.6191
X4.0234Y0.6975
T4
X3.4609Y1.0977
X3.4696Y1.1973
X3.4783Y1.2969
X3.487Y1.3966
X3.4957Y1.4962
X3.5044Y1.5958
X3.5132Y1.6954
X4.0586Y1.0454
X4.0673Y1.145
X4.076Y1.2447
X4.0847Y1.3443
X4.0935Y1.4439
X4.1022Y1.5435
X4.1109Y1.6431
M30
