%TF.GenerationSoftware,KiCad,Pcbnew,8.0.6*%
%TF.CreationDate,2024-11-20T19:49:45-07:00*%
%TF.ProjectId,board,626f6172-642e-46b6-9963-61645f706362,v1.0.0*%
%TF.SameCoordinates,Original*%
%TF.FileFunction,Profile,NP*%
%FSLAX46Y46*%
G04 Gerber Fmt 4.6, Leading zero omitted, Abs format (unit mm)*
G04 Created by KiCad (PCBNEW 8.0.6) date 2024-11-20 19:49:45*
%MOMM*%
%LPD*%
G01*
G04 APERTURE LIST*
%TA.AperFunction,Profile*%
%ADD10C,0.150000*%
%TD*%
G04 APERTURE END LIST*
D10*
X-11000000Y43911182D02*
G75*
G02*
X-9040961Y46724792I3000003J-2D01*
G01*
X105045958Y44571431D02*
G75*
G02*
X107773134Y41321375I-261458J-2988631D01*
G01*
X50671740Y58362938D02*
G75*
G02*
X51388774Y58210300I-261440J-2988638D01*
G01*
X33593127Y59857123D02*
X50671739Y58362938D01*
X107473693Y-42470126D02*
G75*
G02*
X103321474Y-43287979I-2487093J1677626D01*
G01*
X86486170Y46195203D02*
X105045958Y44571432D01*
X-8719659Y-10563476D02*
G75*
G02*
X-11000000Y-7651073I719658J2912402D01*
G01*
X103945845Y-18471535D02*
G75*
G02*
X102770373Y-15817985I1812955J2390235D01*
G01*
X103321452Y-43288013D02*
X89231622Y-33886407D01*
X88567914Y-33553948D02*
X72895588Y-28004086D01*
X115401368Y-30716864D02*
X107473693Y-42470126D01*
X72895588Y-28004086D02*
X72110118Y-27833544D01*
X-11000000Y-7651073D02*
X-11000000Y43911182D01*
X51388771Y58210291D02*
X85769139Y46347849D01*
X107773075Y41321380D02*
X103284633Y-9981746D01*
X-9040961Y46724792D02*
X14484868Y55428722D01*
X86486171Y46195202D02*
G75*
G02*
X85769136Y46347840I261429J2988598D01*
G01*
X103284633Y-9981746D02*
G75*
G02*
X103284470Y-9983600I-866033J75246D01*
G01*
X114727211Y-26649059D02*
G75*
G02*
X115401392Y-30716880I-1812911J-2390241D01*
G01*
X103284470Y-9983600D02*
X102770380Y-15817986D01*
X55406861Y-26372198D02*
G75*
G02*
X54948667Y-26296024I261439J2988698D01*
G01*
X32634636Y59786442D02*
G75*
G02*
X33593128Y59857135I697064J-2917942D01*
G01*
X103945845Y-18471535D02*
X114727212Y-26649058D01*
X14828805Y55533015D02*
X32634636Y59786442D01*
X88567914Y-33553948D02*
G75*
G02*
X89231624Y-33886403I-1001414J-2827952D01*
G01*
X72110118Y-27833544D02*
X55406861Y-26372198D01*
X54948669Y-26296017D02*
X-8719659Y-10563476D01*
X14484868Y55428722D02*
G75*
G02*
X14828803Y55533022I1040932J-2813322D01*
G01*
M02*
