%TF.GenerationSoftware,KiCad,Pcbnew,8.0.6*%
%TF.CreationDate,2024-11-20T19:49:45-07:00*%
%TF.ProjectId,board,626f6172-642e-46b6-9963-61645f706362,v1.0.0*%
%TF.SameCoordinates,Original*%
%TF.FileFunction,Legend,Bot*%
%TF.FilePolarity,Positive*%
%FSLAX46Y46*%
G04 Gerber Fmt 4.6, Leading zero omitted, Abs format (unit mm)*
G04 Created by KiCad (PCBNEW 8.0.6) date 2024-11-20 19:49:45*
%MOMM*%
%LPD*%
G01*
G04 APERTURE LIST*
%ADD10C,0.150000*%
%ADD11C,0.100000*%
%ADD12C,0.127000*%
%ADD13C,0.200000*%
G04 APERTURE END LIST*
D10*
X97683212Y34720833D02*
X96931927Y33782742D01*
X97019083Y34778937D02*
X97596057Y33724638D01*
X96552424Y33815945D02*
X96639580Y34812139D01*
X96150386Y34137924D02*
X95676007Y34179427D01*
X96220360Y33844996D02*
X95975451Y34870243D01*
X95975451Y34870243D02*
X95556230Y33903100D01*
X95121569Y34944948D02*
X94931818Y34961549D01*
X94931818Y34961549D02*
X94832792Y34922412D01*
X94832792Y34922412D02*
X94729616Y34835837D01*
X94729616Y34835837D02*
X94665577Y34650235D01*
X94665577Y34650235D02*
X94636525Y34318171D01*
X94636525Y34318171D02*
X94667362Y34124269D01*
X94667362Y34124269D02*
X94753937Y34021093D01*
X94753937Y34021093D02*
X94844662Y33965354D01*
X94844662Y33965354D02*
X95034413Y33948753D01*
X95034413Y33948753D02*
X95133439Y33987891D01*
X95133439Y33987891D02*
X95236616Y34074466D01*
X95236616Y34074466D02*
X95300655Y34260067D01*
X95300655Y34260067D02*
X95329707Y34592132D01*
X95329707Y34592132D02*
X95298870Y34786033D01*
X95298870Y34786033D02*
X95212295Y34889210D01*
X95212295Y34889210D02*
X95121569Y34944948D01*
X98272617Y35720887D02*
X98126153Y35685900D01*
X98126153Y35685900D02*
X97888964Y35706652D01*
X97888964Y35706652D02*
X97798239Y35762390D01*
X97798239Y35762390D02*
X97754951Y35813978D01*
X97754951Y35813978D02*
X97715814Y35913004D01*
X97715814Y35913004D02*
X97724115Y36007880D01*
X97724115Y36007880D02*
X97779853Y36098605D01*
X97779853Y36098605D02*
X97831441Y36141893D01*
X97831441Y36141893D02*
X97930467Y36181030D01*
X97930467Y36181030D02*
X98124369Y36211867D01*
X98124369Y36211867D02*
X98223395Y36251004D01*
X98223395Y36251004D02*
X98274983Y36294292D01*
X98274983Y36294292D02*
X98330721Y36385017D01*
X98330721Y36385017D02*
X98339022Y36479893D01*
X98339022Y36479893D02*
X98299884Y36578919D01*
X98299884Y36578919D02*
X98256597Y36630507D01*
X98256597Y36630507D02*
X98165871Y36686245D01*
X98165871Y36686245D02*
X97928682Y36706997D01*
X97928682Y36706997D02*
X97782218Y36672010D01*
X96896920Y35841245D02*
X96987645Y35785507D01*
X96987645Y35785507D02*
X97177397Y35768906D01*
X97177397Y35768906D02*
X97276423Y35808043D01*
X97276423Y35808043D02*
X97332161Y35898769D01*
X97332161Y35898769D02*
X97365363Y36278271D01*
X97365363Y36278271D02*
X97326226Y36377297D01*
X97326226Y36377297D02*
X97235500Y36433036D01*
X97235500Y36433036D02*
X97045749Y36449637D01*
X97045749Y36449637D02*
X96946723Y36410499D01*
X96946723Y36410499D02*
X96890985Y36319774D01*
X96890985Y36319774D02*
X96882684Y36224898D01*
X96882684Y36224898D02*
X97348762Y36088520D01*
X96043038Y35915950D02*
X96133764Y35860212D01*
X96133764Y35860212D02*
X96323515Y35843611D01*
X96323515Y35843611D02*
X96422541Y35882748D01*
X96422541Y35882748D02*
X96478280Y35973473D01*
X96478280Y35973473D02*
X96511482Y36352976D01*
X96511482Y36352976D02*
X96472345Y36452002D01*
X96472345Y36452002D02*
X96381619Y36507741D01*
X96381619Y36507741D02*
X96191868Y36524342D01*
X96191868Y36524342D02*
X96092842Y36485204D01*
X96092842Y36485204D02*
X96037103Y36394479D01*
X96037103Y36394479D02*
X96028803Y36299603D01*
X96028803Y36299603D02*
X96494881Y36163225D01*
X95189157Y35990655D02*
X95279883Y35934917D01*
X95279883Y35934917D02*
X95469634Y35918316D01*
X95469634Y35918316D02*
X95568660Y35957453D01*
X95568660Y35957453D02*
X95624398Y36048178D01*
X95624398Y36048178D02*
X95657600Y36427681D01*
X95657600Y36427681D02*
X95618463Y36526707D01*
X95618463Y36526707D02*
X95527738Y36582445D01*
X95527738Y36582445D02*
X95337986Y36599047D01*
X95337986Y36599047D02*
X95238960Y36559909D01*
X95238960Y36559909D02*
X95183222Y36469184D01*
X95183222Y36469184D02*
X95174922Y36374308D01*
X95174922Y36374308D02*
X95640999Y36237930D01*
X94283688Y36022073D02*
X94370843Y37018267D01*
X94287838Y36069510D02*
X94378563Y36013772D01*
X94378563Y36013772D02*
X94568315Y35997171D01*
X94568315Y35997171D02*
X94667341Y36036308D01*
X94667341Y36036308D02*
X94718929Y36079596D01*
X94718929Y36079596D02*
X94774667Y36170321D01*
X94774667Y36170321D02*
X94799569Y36454948D01*
X94799569Y36454948D02*
X94760432Y36553974D01*
X94760432Y36553974D02*
X94717144Y36605562D01*
X94717144Y36605562D02*
X94626419Y36661301D01*
X94626419Y36661301D02*
X94436667Y36677902D01*
X94436667Y36677902D02*
X94337641Y36638764D01*
X103136329Y22197909D02*
X103610708Y22156406D01*
X103610708Y22156406D02*
X103697863Y23152601D01*
X102812565Y22321837D02*
X102760976Y22278549D01*
X102760976Y22278549D02*
X102804264Y22226961D01*
X102804264Y22226961D02*
X102855852Y22270248D01*
X102855852Y22270248D02*
X102812565Y22321837D01*
X102812565Y22321837D02*
X102804264Y22226961D01*
X101622468Y22378156D02*
X101476005Y22343169D01*
X101476005Y22343169D02*
X101238815Y22363920D01*
X101238815Y22363920D02*
X101148090Y22419658D01*
X101148090Y22419658D02*
X101104802Y22471246D01*
X101104802Y22471246D02*
X101065665Y22570272D01*
X101065665Y22570272D02*
X101073966Y22665148D01*
X101073966Y22665148D02*
X101129704Y22755873D01*
X101129704Y22755873D02*
X101181292Y22799161D01*
X101181292Y22799161D02*
X101280318Y22838298D01*
X101280318Y22838298D02*
X101474220Y22869135D01*
X101474220Y22869135D02*
X101573246Y22908272D01*
X101573246Y22908272D02*
X101624834Y22951560D01*
X101624834Y22951560D02*
X101680572Y23042285D01*
X101680572Y23042285D02*
X101688873Y23137161D01*
X101688873Y23137161D02*
X101649736Y23236187D01*
X101649736Y23236187D02*
X101606448Y23287775D01*
X101606448Y23287775D02*
X101515723Y23343513D01*
X101515723Y23343513D02*
X101278533Y23364265D01*
X101278533Y23364265D02*
X101132070Y23329278D01*
X100622123Y22417873D02*
X100680227Y23082003D01*
X100709279Y23414068D02*
X100752567Y23362480D01*
X100752567Y23362480D02*
X100700979Y23319192D01*
X100700979Y23319192D02*
X100657691Y23370781D01*
X100657691Y23370781D02*
X100709279Y23414068D01*
X100709279Y23414068D02*
X100700979Y23319192D01*
X99720805Y22496729D02*
X99807961Y23492923D01*
X99724955Y22544166D02*
X99815681Y22488428D01*
X99815681Y22488428D02*
X100005432Y22471827D01*
X100005432Y22471827D02*
X100104458Y22510964D01*
X100104458Y22510964D02*
X100156046Y22554252D01*
X100156046Y22554252D02*
X100211784Y22644977D01*
X100211784Y22644977D02*
X100236686Y22929604D01*
X100236686Y22929604D02*
X100197549Y23028630D01*
X100197549Y23028630D02*
X100154261Y23080218D01*
X100154261Y23080218D02*
X100063536Y23135957D01*
X100063536Y23135957D02*
X99873784Y23152558D01*
X99873784Y23152558D02*
X99774758Y23113421D01*
X98871074Y22618871D02*
X98961799Y22563133D01*
X98961799Y22563133D02*
X99151551Y22546532D01*
X99151551Y22546532D02*
X99250577Y22585669D01*
X99250577Y22585669D02*
X99306315Y22676395D01*
X99306315Y22676395D02*
X99339517Y23055897D01*
X99339517Y23055897D02*
X99300380Y23154923D01*
X99300380Y23154923D02*
X99209654Y23210662D01*
X99209654Y23210662D02*
X99019903Y23227263D01*
X99019903Y23227263D02*
X98920877Y23188125D01*
X98920877Y23188125D02*
X98865139Y23097400D01*
X98865139Y23097400D02*
X98856838Y23002524D01*
X98856838Y23002524D02*
X99322916Y22866146D01*
X97666741Y23058843D02*
X96907736Y23125248D01*
X95443679Y23874748D02*
X95381424Y23163181D01*
X95381424Y23163181D02*
X95416412Y23016717D01*
X95416412Y23016717D02*
X95502987Y22913541D01*
X95502987Y22913541D02*
X95641150Y22853652D01*
X95641150Y22853652D02*
X95736026Y22845352D01*
X94513307Y23621539D02*
X94455204Y22957409D01*
X94940248Y23584186D02*
X94894595Y23062370D01*
X94894595Y23062370D02*
X94838857Y22971645D01*
X94838857Y22971645D02*
X94739831Y22932507D01*
X94739831Y22932507D02*
X94597517Y22944958D01*
X94597517Y22944958D02*
X94506792Y23000697D01*
X94506792Y23000697D02*
X94463504Y23052285D01*
X93980825Y22998912D02*
X94038929Y23663042D01*
X94030628Y23568166D02*
X93987341Y23619754D01*
X93987341Y23619754D02*
X93896615Y23675492D01*
X93896615Y23675492D02*
X93754302Y23687943D01*
X93754302Y23687943D02*
X93655276Y23648806D01*
X93655276Y23648806D02*
X93599538Y23558080D01*
X93599538Y23558080D02*
X93553885Y23036264D01*
X93599538Y23558080D02*
X93560400Y23657106D01*
X93560400Y23657106D02*
X93469675Y23712845D01*
X93469675Y23712845D02*
X93327361Y23725296D01*
X93327361Y23725296D02*
X93228335Y23686158D01*
X93228335Y23686158D02*
X93172597Y23595433D01*
X93172597Y23595433D02*
X93126944Y23073617D01*
X92710670Y23779249D02*
X92623514Y22783054D01*
X92706519Y23731811D02*
X92615794Y23787550D01*
X92615794Y23787550D02*
X92426043Y23804151D01*
X92426043Y23804151D02*
X92327017Y23765014D01*
X92327017Y23765014D02*
X92275429Y23721726D01*
X92275429Y23721726D02*
X92219690Y23631001D01*
X92219690Y23631001D02*
X92194788Y23346373D01*
X92194788Y23346373D02*
X92233926Y23247348D01*
X92233926Y23247348D02*
X92277213Y23195759D01*
X92277213Y23195759D02*
X92367939Y23140021D01*
X92367939Y23140021D02*
X92557690Y23123420D01*
X92557690Y23123420D02*
X92656716Y23162557D01*
X91375894Y23274615D02*
X91466620Y23218876D01*
X91466620Y23218876D02*
X91656371Y23202275D01*
X91656371Y23202275D02*
X91755397Y23241412D01*
X91755397Y23241412D02*
X91811135Y23332138D01*
X91811135Y23332138D02*
X91844338Y23711641D01*
X91844338Y23711641D02*
X91805200Y23810667D01*
X91805200Y23810667D02*
X91714475Y23866405D01*
X91714475Y23866405D02*
X91524723Y23883006D01*
X91524723Y23883006D02*
X91425698Y23843869D01*
X91425698Y23843869D02*
X91369959Y23753143D01*
X91369959Y23753143D02*
X91361659Y23658268D01*
X91361659Y23658268D02*
X91827736Y23521889D01*
X90897365Y23268680D02*
X90955469Y23932809D01*
X90938868Y23743058D02*
X90899731Y23842084D01*
X90899731Y23842084D02*
X90856443Y23893672D01*
X90856443Y23893672D02*
X90765718Y23949410D01*
X90765718Y23949410D02*
X90670842Y23957711D01*
X89521667Y23389037D02*
X89608823Y24385232D01*
X89567320Y23910854D02*
X88998066Y23960657D01*
X88952413Y23438841D02*
X89039569Y24435035D01*
X88102682Y23560984D02*
X88193408Y23505245D01*
X88193408Y23505245D02*
X88383159Y23488644D01*
X88383159Y23488644D02*
X88482185Y23527781D01*
X88482185Y23527781D02*
X88537924Y23618507D01*
X88537924Y23618507D02*
X88571126Y23998010D01*
X88571126Y23998010D02*
X88531988Y24097035D01*
X88531988Y24097035D02*
X88441263Y24152774D01*
X88441263Y24152774D02*
X88251512Y24169375D01*
X88251512Y24169375D02*
X88152486Y24130238D01*
X88152486Y24130238D02*
X88096747Y24039512D01*
X88096747Y24039512D02*
X88088447Y23944637D01*
X88088447Y23944637D02*
X88554525Y23808258D01*
X87624154Y23555048D02*
X87682257Y24219178D01*
X87665656Y24029427D02*
X87626519Y24128453D01*
X87626519Y24128453D02*
X87583231Y24180041D01*
X87583231Y24180041D02*
X87492506Y24235779D01*
X87492506Y24235779D02*
X87397630Y24244080D01*
X86632109Y23689642D02*
X86722834Y23633904D01*
X86722834Y23633904D02*
X86912586Y23617303D01*
X86912586Y23617303D02*
X87011611Y23656440D01*
X87011611Y23656440D02*
X87067350Y23747165D01*
X87067350Y23747165D02*
X87100552Y24126668D01*
X87100552Y24126668D02*
X87061415Y24225694D01*
X87061415Y24225694D02*
X86970689Y24281432D01*
X86970689Y24281432D02*
X86780938Y24298033D01*
X86780938Y24298033D02*
X86681912Y24258896D01*
X86681912Y24258896D02*
X86626174Y24168171D01*
X86626174Y24168171D02*
X86617873Y24073295D01*
X86617873Y24073295D02*
X87083951Y23936917D01*
X98900828Y3132997D02*
X98935815Y2986533D01*
X98935815Y2986533D02*
X98915064Y2749344D01*
X98915064Y2749344D02*
X98859325Y2658619D01*
X98859325Y2658619D02*
X98807737Y2615331D01*
X98807737Y2615331D02*
X98708711Y2576194D01*
X98708711Y2576194D02*
X98613836Y2584494D01*
X98613836Y2584494D02*
X98523110Y2640233D01*
X98523110Y2640233D02*
X98479823Y2691821D01*
X98479823Y2691821D02*
X98440685Y2790847D01*
X98440685Y2790847D02*
X98409849Y2984749D01*
X98409849Y2984749D02*
X98370711Y3083774D01*
X98370711Y3083774D02*
X98327424Y3135363D01*
X98327424Y3135363D02*
X98236698Y3191101D01*
X98236698Y3191101D02*
X98141823Y3199402D01*
X98141823Y3199402D02*
X98042797Y3160264D01*
X98042797Y3160264D02*
X97991208Y3116977D01*
X97991208Y3116977D02*
X97935470Y3026251D01*
X97935470Y3026251D02*
X97914719Y2789062D01*
X97914719Y2789062D02*
X97949706Y2642598D01*
X98815457Y1610836D02*
X98865260Y2180090D01*
X98840359Y1895463D02*
X97844164Y1982619D01*
X97844164Y1982619D02*
X97994778Y2065044D01*
X97994778Y2065044D02*
X98097954Y2151619D01*
X98097954Y2151619D02*
X98153693Y2242344D01*
X98773954Y1136457D02*
X98757353Y946706D01*
X98757353Y946706D02*
X98701615Y855981D01*
X98701615Y855981D02*
X98650027Y812693D01*
X98650027Y812693D02*
X98499413Y730268D01*
X98499413Y730268D02*
X98305511Y699431D01*
X98305511Y699431D02*
X97926008Y732634D01*
X97926008Y732634D02*
X97835283Y788372D01*
X97835283Y788372D02*
X97791995Y839960D01*
X97791995Y839960D02*
X97752858Y938986D01*
X97752858Y938986D02*
X97769459Y1128737D01*
X97769459Y1128737D02*
X97825198Y1219463D01*
X97825198Y1219463D02*
X97876786Y1262750D01*
X97876786Y1262750D02*
X97975812Y1301888D01*
X97975812Y1301888D02*
X98213001Y1281136D01*
X98213001Y1281136D02*
X98303726Y1225398D01*
X98303726Y1225398D02*
X98347014Y1173810D01*
X98347014Y1173810D02*
X98386151Y1074784D01*
X98386151Y1074784D02*
X98369550Y885033D01*
X98369550Y885033D02*
X98313812Y794307D01*
X98313812Y794307D02*
X98262224Y751020D01*
X98262224Y751020D02*
X98163198Y711882D01*
D11*
%TO.C,D2*%
X6575552Y14056658D02*
X7375552Y14056658D01*
X6975552Y14056658D02*
X6975552Y14556658D01*
X6975552Y13456658D02*
X6425552Y13456658D01*
X6975552Y13456658D02*
X6575552Y14056658D01*
X6975552Y13456658D02*
X7525552Y13456658D01*
X6975552Y13056658D02*
X6975552Y13456658D01*
X7375552Y14056658D02*
X6975552Y13456658D01*
%TO.C,D12*%
X64730601Y36109605D02*
X65527557Y36039880D01*
X65041923Y35078548D02*
X65076784Y35477026D01*
X65076784Y35477026D02*
X64528878Y35524962D01*
X65076784Y35477026D02*
X64730601Y36109605D01*
X65076784Y35477026D02*
X65624693Y35429090D01*
X65129079Y36074743D02*
X65172657Y36572840D01*
X65527557Y36039880D02*
X65076784Y35477026D01*
%TO.C,D10*%
X61592994Y246595D02*
X62389950Y176870D01*
X61904316Y-784462D02*
X61939177Y-385984D01*
X61939177Y-385984D02*
X61391271Y-338048D01*
X61939177Y-385984D02*
X61592994Y246595D01*
X61939177Y-385984D02*
X62487086Y-433920D01*
X61991472Y211733D02*
X62035050Y709830D01*
X62389950Y176870D02*
X61939177Y-385984D01*
D10*
%TO.C,JST1*%
X85562607Y15207780D02*
X93133686Y14545396D01*
X85623616Y15905116D02*
X85562607Y15207780D01*
X86015817Y20387992D02*
X87609728Y20248543D01*
X86076826Y21085329D02*
X86015817Y20387992D01*
X87217527Y15765667D02*
X85623616Y15905116D01*
X87609728Y20248543D02*
X87217527Y15765667D01*
X88804827Y18924829D02*
X89302924Y18881251D01*
X89032086Y18653992D02*
X89075664Y19152089D01*
X93133686Y14545396D02*
X93647905Y20422945D01*
X93647905Y20422945D02*
X86076826Y21085329D01*
D11*
%TO.C,D5*%
X27385944Y22311901D02*
X28182900Y22242176D01*
X27697266Y21280844D02*
X27732127Y21679322D01*
X27732127Y21679322D02*
X27184221Y21727258D01*
X27732127Y21679322D02*
X27385944Y22311901D01*
X27732127Y21679322D02*
X28280036Y21631386D01*
X27784422Y22277039D02*
X27828000Y22775136D01*
X28182900Y22242176D02*
X27732127Y21679322D01*
%TO.C,D4*%
X25817141Y4380397D02*
X26614097Y4310672D01*
X26128463Y3349340D02*
X26163324Y3747818D01*
X26163324Y3747818D02*
X25615418Y3795754D01*
X26163324Y3747818D02*
X25817141Y4380397D01*
X26163324Y3747818D02*
X26711233Y3699882D01*
X26215619Y4345535D02*
X26259197Y4843632D01*
X26614097Y4310672D02*
X26163324Y3747818D01*
D10*
%TO.C,JST2*%
X95624174Y14327507D02*
X103195253Y13665123D01*
X96138393Y20205056D02*
X95624174Y14327507D01*
X100239993Y16096460D02*
X100196415Y15598363D01*
X100467252Y15825623D02*
X99969155Y15869201D01*
X101662351Y14501909D02*
X102054552Y18984785D01*
X102054552Y18984785D02*
X103648463Y18845336D01*
X103195253Y13665123D02*
X103256262Y14362460D01*
X103256262Y14362460D02*
X101662351Y14501909D01*
X103648463Y18845336D02*
X103709472Y19542672D01*
X103709472Y19542672D02*
X96138393Y20205056D01*
D11*
%TO.C,D17*%
X89128183Y-27327152D02*
X89882296Y-27594197D01*
X89171433Y-28403316D02*
X89304957Y-28026260D01*
X89304957Y-28026260D02*
X88786503Y-27842666D01*
X89304957Y-28026260D02*
X89128183Y-27327152D01*
X89304957Y-28026260D02*
X89823408Y-28209853D01*
X89505240Y-27460675D02*
X89672143Y-26989354D01*
X89882296Y-27594197D02*
X89304957Y-28026260D01*
%TO.C,D6*%
X28954747Y40243406D02*
X29751703Y40173681D01*
X29266069Y39212349D02*
X29300930Y39610827D01*
X29300930Y39610827D02*
X28753024Y39658763D01*
X29300930Y39610827D02*
X28954747Y40243406D01*
X29300930Y39610827D02*
X29848839Y39562891D01*
X29353225Y40208544D02*
X29396803Y40706641D01*
X29751703Y40173681D02*
X29300930Y39610827D01*
%TO.C,D14*%
X80918990Y14616907D02*
X81715946Y14547182D01*
X81230312Y13585850D02*
X81265173Y13984328D01*
X81265173Y13984328D02*
X80717267Y14032264D01*
X81265173Y13984328D02*
X80918990Y14616907D01*
X81265173Y13984328D02*
X81813082Y13936392D01*
X81317468Y14582045D02*
X81361046Y15080142D01*
X81715946Y14547182D02*
X81265173Y13984328D01*
D12*
%TO.C,U1*%
X88035956Y44051974D02*
X86554308Y27116664D01*
X88372386Y24949963D02*
X102119873Y23747214D01*
X103950144Y44667303D02*
X90202657Y45870052D01*
X104286574Y25565292D02*
X105768222Y42500602D01*
X88035956Y44051974D02*
G75*
G02*
X90202657Y45870052I1992388J-174310D01*
G01*
X88372386Y24949963D02*
G75*
G02*
X86554308Y27116664I174311J1992389D01*
G01*
X103950144Y44667303D02*
G75*
G02*
X105768222Y42500602I-174312J-1992390D01*
G01*
X104286574Y25565292D02*
G75*
G02*
X102119873Y23747214I-1992389J174311D01*
G01*
X101683389Y46295088D02*
X101036342Y38899308D01*
X92070590Y39683710D01*
X92717637Y47079489D01*
X101683389Y46295088D01*
D11*
%TO.C,D15*%
X82487794Y32548412D02*
X83284750Y32478687D01*
X82799116Y31517355D02*
X82833977Y31915833D01*
X82833977Y31915833D02*
X82286071Y31963769D01*
X82833977Y31915833D02*
X82487794Y32548412D01*
X82833977Y31915833D02*
X83381886Y31867897D01*
X82886272Y32513550D02*
X82929850Y33011647D01*
X83284750Y32478687D02*
X82833977Y31915833D01*
%TO.C,D16*%
X70720865Y-21632207D02*
X71517821Y-21701932D01*
X71032187Y-22663264D02*
X71067048Y-22264786D01*
X71067048Y-22264786D02*
X70519142Y-22216850D01*
X71067048Y-22264786D02*
X70720865Y-21632207D01*
X71067048Y-22264786D02*
X71614957Y-22312722D01*
X71119343Y-21667069D02*
X71162921Y-21168972D01*
X71517821Y-21701932D02*
X71067048Y-22264786D01*
%TO.C,D8*%
X45840383Y26720266D02*
X46637339Y26650541D01*
X46151705Y25689209D02*
X46186566Y26087687D01*
X46186566Y26087687D02*
X45638660Y26135623D01*
X46186566Y26087687D02*
X45840383Y26720266D01*
X46186566Y26087687D02*
X46734475Y26039751D01*
X46238861Y26685404D02*
X46282439Y27183501D01*
X46637339Y26650541D02*
X46186566Y26087687D01*
%TO.C,D13*%
X79350187Y-3314597D02*
X80147143Y-3384322D01*
X79661509Y-4345654D02*
X79696370Y-3947176D01*
X79696370Y-3947176D02*
X79148464Y-3899240D01*
X79696370Y-3947176D02*
X79350187Y-3314597D01*
X79696370Y-3947176D02*
X80244279Y-3995112D01*
X79748665Y-3349459D02*
X79792243Y-2851362D01*
X80147143Y-3384322D02*
X79696370Y-3947176D01*
%TO.C,D3*%
X6575552Y32056658D02*
X7375552Y32056658D01*
X6975552Y32056658D02*
X6975552Y32556658D01*
X6975552Y31456658D02*
X6425552Y31456658D01*
X6975552Y31456658D02*
X6575552Y32056658D01*
X6975552Y31456658D02*
X7525552Y31456658D01*
X6975552Y31056658D02*
X6975552Y31456658D01*
X7375552Y32056658D02*
X6975552Y31456658D01*
%TO.C,D18*%
X105295705Y-38502238D02*
X105519382Y-38170623D01*
X105519382Y-38170623D02*
X105063412Y-37863067D01*
X105519382Y-38170623D02*
X105523283Y-37449523D01*
X105519382Y-38170623D02*
X105975353Y-38478179D01*
X105523283Y-37449523D02*
X106186513Y-37896878D01*
X105854898Y-37673201D02*
X106134495Y-37258682D01*
X106186513Y-37896878D02*
X105519382Y-38170623D01*
%TO.C,D11*%
X63161797Y18178100D02*
X63958753Y18108375D01*
X63473119Y17147043D02*
X63507980Y17545521D01*
X63507980Y17545521D02*
X62960074Y17593457D01*
X63507980Y17545521D02*
X63161797Y18178100D01*
X63507980Y17545521D02*
X64055889Y17497585D01*
X63560275Y18143238D02*
X63603853Y18641335D01*
X63958753Y18108375D02*
X63507980Y17545521D01*
%TO.C,D9*%
X47409186Y44651771D02*
X48206142Y44582046D01*
X47720508Y43620714D02*
X47755369Y44019192D01*
X47755369Y44019192D02*
X47207463Y44067128D01*
X47755369Y44019192D02*
X47409186Y44651771D01*
X47755369Y44019192D02*
X48303278Y43971256D01*
X47807664Y44616909D02*
X47851242Y45115006D01*
X48206142Y44582046D02*
X47755369Y44019192D01*
%TO.C,D1*%
X6575552Y-3943342D02*
X7375552Y-3943342D01*
X6975552Y-3943342D02*
X6975552Y-3443342D01*
X6975552Y-4543342D02*
X6425552Y-4543342D01*
X6975552Y-4543342D02*
X6575552Y-3943342D01*
X6975552Y-4543342D02*
X7525552Y-4543342D01*
X6975552Y-4943342D02*
X6975552Y-4543342D01*
X7375552Y-3943342D02*
X6975552Y-4543342D01*
%TO.C,D7*%
X44271580Y8788762D02*
X45068536Y8719037D01*
X44582902Y7757705D02*
X44617763Y8156183D01*
X44617763Y8156183D02*
X44069857Y8204119D01*
X44617763Y8156183D02*
X44271580Y8788762D01*
X44617763Y8156183D02*
X45165672Y8108247D01*
X44670058Y8753900D02*
X44713636Y9251997D01*
X45068536Y8719037D02*
X44617763Y8156183D01*
D12*
%TO.C,S19*%
X101067241Y39315D02*
X101081186Y198706D01*
X101197974Y1533607D02*
X101342653Y3187290D01*
X101829475Y-1804133D02*
X102586583Y-1870373D01*
X102413417Y4870373D02*
X103170525Y4804133D01*
X104041703Y4205928D02*
X103548402Y-1432534D01*
D13*
X99707896Y4011621D02*
G75*
G02*
X99507898Y4011621I-99999J0D01*
G01*
X99507898Y4011621D02*
G75*
G02*
X99707896Y4011621I99999J0D01*
G01*
%TD*%
M02*
